<?xml version="1.0" encoding="utf-8"?>
<!-- Generator: Adobe Illustrator 16.0.4, SVG Export Plug-In . SVG Version: 6.00 Build 0)  -->
<!DOCTYPE svg PUBLIC "-//W3C//DTD SVG 1.1//EN" "http://www.w3.org/Graphics/SVG/1.1/DTD/svg11.dtd">
<svg version="1.1" id="Layer_1" xmlns="http://www.w3.org/2000/svg" xmlns:xlink="http://www.w3.org/1999/xlink" x="0px" y="0px"
	 width="72px" height="72px" viewBox="0 0 72 72" enable-background="new 0 0 72 72" xml:space="preserve">
<g>
	<rect x="34.988" y="22.528" fill="#FFFFFF" width="2.27" height="24.082"/>
	<circle fill="#FFFFFF" cx="27.851" cy="24.295" r="1.985"/>
	<path fill="#FFFFFF" d="M31.65,28.651c-0.214-0.642-1.041-1.807-2.455-1.807h-1.416h-1.314c-1.426,0-2.25,1.155-2.438,1.807
		l-1.734,5.714c-0.361,1.229,1.215,1.699,1.586,0.553l1.563-5.26h0.417l-2.654,9.206h2.48v6.943c0,1.25,1.873,1.25,1.873,0
		l-0.001-6.943h0.556v6.953c0,1.234,1.863,1.24,1.863,0v-6.953h2.49l-2.682-9.206h0.451l1.562,5.241
		c0.373,1.196,1.936,0.688,1.588-0.539L31.65,28.651z"/>
	<path fill="#FFFFFF" d="M46.182,26.84l-4.166-0.003c-1.396,0-2.52,1.156-2.52,2.597v6.142c0,1.195,1.723,1.195,1.723,0V29.96h0.408
		v15.561c0,1.598,2.294,1.55,2.294,0v-9.109h0.396v9.109c0,1.55,2.307,1.598,2.307,0V29.96h0.398v5.615c0,1.204,1.714,1.204,1.711,0
		v-6.104C48.732,28.142,47.715,26.84,46.182,26.84z"/>
	<circle fill="#FFFFFF" cx="44.109" cy="24.295" r="1.985"/>
</g>
</svg>
