<?xml version="1.0" encoding="utf-8"?>
<!-- Generator: Adobe Illustrator 16.0.4, SVG Export Plug-In . SVG Version: 6.00 Build 0)  -->
<!DOCTYPE svg PUBLIC "-//W3C//DTD SVG 1.1//EN" "http://www.w3.org/Graphics/SVG/1.1/DTD/svg11.dtd">
<svg version="1.1" id="Layer_1" xmlns="http://www.w3.org/2000/svg" xmlns:xlink="http://www.w3.org/1999/xlink" x="0px" y="0px"
	 width="72px" height="72px" viewBox="0 0 72 72" enable-background="new 0 0 72 72" xml:space="preserve">
<g>
	<path fill="#FFFFFF" d="M39.917,42.941c-1.827-1.17-5.318-1.102-5.318-1.102s-3.49-0.068-5.317,1.102c0,0-1.023,0.804,0.438,1.389
		c0,0,2.248,0.588,4.879,0.516c2.631,0.072,4.88-0.516,4.88-0.516C40.939,43.745,39.917,42.941,39.917,42.941z"/>
	<path fill="#FFFFFF" d="M29.522,30.958c-0.063-0.58-0.836-0.865-0.836-0.865c-3.346-1.352-5.919,0.836-5.919,0.836
		c3.024,2.124,5.869,0.886,5.869,0.886C29.602,31.494,29.522,30.958,29.522,30.958z"/>
	<path fill="#FFFFFF" d="M40.511,30.093c0,0-0.771,0.285-0.836,0.865c0,0-0.078,0.535,0.887,0.856c0,0,2.846,1.238,5.869-0.886
		C46.431,30.929,43.856,28.741,40.511,30.093z"/>
	<path fill="#FFFFFF" d="M34.6,18.082c-9.241,0-16.73,7.49-16.73,16.731s7.489,16.733,16.73,16.733c9.24,0,16.73-7.491,16.73-16.733
		S43.84,18.082,34.6,18.082z M23.085,32.408c-1.834-0.983-0.59-2.358-0.59-2.358c3.405-2.554,7.008-0.458,7.008-0.458
		c2.162,1.44,0,2.842,0,2.842C26.49,34.202,23.085,32.408,23.085,32.408z M34.599,46.382c-6.503,0.146-7.51-3.435-7.51-3.435
		s2.176-2.85,7.51-2.631c5.334-0.219,7.51,2.631,7.51,2.631S41.103,46.527,34.599,46.382z M46.114,32.408
		c0,0-3.406,1.794-6.419,0.025c0,0-2.161-1.401,0-2.842c0,0,3.603-2.096,7.008,0.458C46.703,30.049,47.948,31.425,46.114,32.408z
		 M47.433,28.4c0,0-4.311-2.923-8.11-0.293c0,0-2.266,1.097-1.534,5.115c0,0,1.607,4.312-1.462,5.553c0,0-0.805,0.275-1.727,0.256
		c-0.922,0.02-1.728-0.256-1.728-0.256c-3.069-1.241-1.461-5.553-1.461-5.553c0.73-4.019-1.535-5.115-1.535-5.115
		c-3.8-2.63-8.111,0.293-8.111,0.293c-0.548-0.225-0.122-0.892-0.122-0.892s3.469-3.144,7.89-1.042c0,0,4.437,1.396,3.35,7.219
		c0,0-1.11,3.796,1.718,3.944c2.828-0.148,1.718-3.944,1.718-3.944c-1.087-5.823,3.349-7.219,3.349-7.219
		c4.421-2.102,7.89,1.042,7.89,1.042S47.981,28.175,47.433,28.4z"/>
</g>
</svg>
