<?xml version="1.0" encoding="utf-8"?>
<!-- Generator: Adobe Illustrator 16.0.4, SVG Export Plug-In . SVG Version: 6.00 Build 0)  -->
<!DOCTYPE svg PUBLIC "-//W3C//DTD SVG 1.1//EN" "http://www.w3.org/Graphics/SVG/1.1/DTD/svg11.dtd">
<svg version="1.1" id="Layer_1" xmlns="http://www.w3.org/2000/svg" xmlns:xlink="http://www.w3.org/1999/xlink" x="0px" y="0px"
	 width="72px" height="72px" viewBox="0 0 72 72" enable-background="new 0 0 72 72" xml:space="preserve">
<path fill="#FFFFFF" d="M43.969,26.966c-0.305-1.155-1.812-1.271-1.812-1.271c1.782-1.646,0.88-3.07,0.88-3.07
	c-1.635-2.133-3.641-0.368-3.641-0.368c-0.751-1.313-2.053-0.689-2.053-0.689c-1.904,0.858-0.616,3.386-0.616,3.386
	c-0.935-0.628-1.679,0.217-1.679,0.217c-1.727,1.68,1.074,3.276,1.285,3.394l-1.211,1.983l-0.841-0.52c0,0-1.755-1.222-2.94,0.694
	l-0.851,2.536l3.858,2.385l-0.523,0.844l-3.66-2.262l-0.892,2.657l3.117,1.927l-0.522,0.845l-2.919-1.804l-0.894,2.66l2.375,1.469
	l-0.523,0.846l-2.176-1.346l-2.372,7.066c-0.127,0.252-0.051,0.561,0.194,0.711c0.243,0.152,0.553,0.082,0.721-0.145l13.27-13.318
	c1.186-1.916-0.693-2.939-0.693-2.939l-0.91-0.562l1.125-1.84l0.297,0.205c2.181,1.682,3.09,0.558,3.09,0.558
	c1.101-1.173-0.109-2.194-0.109-2.194C44.211,28.798,43.969,26.966,43.969,26.966z M36.844,31.611l-0.623-0.386l1.179-1.93
	l0.604,0.418L36.844,31.611z"/>
</svg>
