<?xml version="1.0" encoding="utf-8"?>
<!-- Generator: Adobe Illustrator 16.0.4, SVG Export Plug-In . SVG Version: 6.00 Build 0)  -->
<!DOCTYPE svg PUBLIC "-//W3C//DTD SVG 1.1//EN" "http://www.w3.org/Graphics/SVG/1.1/DTD/svg11.dtd">
<svg version="1.1" id="Layer_1" xmlns="http://www.w3.org/2000/svg" xmlns:xlink="http://www.w3.org/1999/xlink" x="0px" y="0px"
	 width="72px" height="72px" viewBox="0 0 72 72" enable-background="new 0 0 72 72" xml:space="preserve">
<path fill="#FFFFFF" d="M32.418,21.73c7.264,0.276,10.445,6.735,10.445,6.735c2.989,6.23-0.965,10.176-0.965,10.176
	c-2.412,2.715-6.373,0.322-6.373,0.322c-2.211-0.938-4.393,1.446-4.393,1.446c-8.396,5.844-10.768-4.445-10.768-4.445
	c-1.938-8.614,5.213-12.532,5.213-12.532C28.542,21.603,32.418,21.73,32.418,21.73z M28.786,28.058c1.003,0,1.813-0.813,1.813-1.813
	c0-1.001-0.811-1.813-1.813-1.813c-1.002,0-1.813,0.812-1.813,1.813C26.973,27.245,27.784,28.058,28.786,28.058z M24.575,30.792
	c0.873,0,1.58-0.707,1.58-1.579c0-0.871-0.707-1.579-1.58-1.579c-0.872,0-1.579,0.708-1.579,1.579
	C22.996,30.085,23.703,30.792,24.575,30.792z M34.097,27.245c0.872,0,1.58-0.707,1.58-1.579s-0.708-1.58-1.58-1.58
	c-0.873,0-1.58,0.708-1.58,1.58S33.224,27.245,34.097,27.245z M23.422,35.1c0.674,0,1.219-0.546,1.219-1.219
	c0-0.672-0.545-1.218-1.219-1.218c-0.672,0-1.216,0.546-1.216,1.218C22.206,34.554,22.75,35.1,23.422,35.1z M38.353,29.489
	c0.674,0,1.219-0.545,1.219-1.217c0-0.673-0.545-1.218-1.219-1.218c-0.672,0-1.217,0.545-1.217,1.218
	C37.136,28.944,37.681,29.489,38.353,29.489z M24.784,38.902c0.538,0,0.974-0.436,0.974-0.975c0-0.537-0.436-0.973-0.974-0.973
	s-0.976,0.436-0.976,0.973C23.809,38.467,24.246,38.902,24.784,38.902z M33.217,37.971c0.881,0,1.594-0.713,1.594-1.593
	c0-0.881-0.713-1.593-1.594-1.593c-0.883,0-1.596,0.712-1.596,1.593C31.621,37.258,32.334,37.971,33.217,37.971z M50.707,25.242
	c0,0-0.374,1.077-1.426,1.926c0,0-2.393,2.151-0.882,3.8c-1.711,1.301-4.335,8.375-5.185,10.212l-2.834,6.746l0.014,0.006
	c-0.105,0.366,0.069,0.763,0.427,0.921c0.354,0.157,0.76,0.025,0.963-0.293l0.009,0.004l3.122-6.695
	c0.802-1.887,4.347-8.704,4.053-10.74c0.374-0.107,1.002-0.382,1.597-1.095C52.179,28.094,50.798,25.555,50.707,25.242z"/>
</svg>
