<?xml version="1.0" encoding="utf-8"?>
<!-- Generator: Adobe Illustrator 16.0.4, SVG Export Plug-In . SVG Version: 6.00 Build 0)  -->
<!DOCTYPE svg PUBLIC "-//W3C//DTD SVG 1.1//EN" "http://www.w3.org/Graphics/SVG/1.1/DTD/svg11.dtd">
<svg version="1.1" id="Layer_1" xmlns="http://www.w3.org/2000/svg" xmlns:xlink="http://www.w3.org/1999/xlink" x="0px" y="0px"
	 width="72px" height="72px" viewBox="0 0 72 72" enable-background="new 0 0 72 72" xml:space="preserve">
<g>
	<polygon fill="#FFFFFF" points="48.068,35.632 34.893,24.6 21.721,35.632 20.59,34.339 34.924,21.979 41.765,28.237 41.765,23.63 
		44.209,23.63 44.229,30.096 49.2,34.339 	"/>
	<path fill="#FFFFFF" d="M23.727,47.951l0.033-12.33c0-0.012,0-0.029,0.006-0.059c0.006-0.023,0.012-0.041,0.012-0.059l11.115-9.161
		l11.123,9.161l0,0c0.011,0.029,0.019,0.064,0.019,0.117v12.361l-9.353-0.012v-6.602h-3.578v6.602L23.727,47.951z M36.719,28.479
		H32.92v0.525h3.799V28.479z M39.042,30.61h-8.446v0.525h8.446V30.61z M41.607,32.761H28.029v0.525h13.578V32.761z M30.93,34.945
		h-2.627v2.626h2.627V34.945z M41.335,34.925h-2.626v2.626h2.626V34.925z M37.405,34.924h-5.173v0.525h5.173V34.924z M37.405,37.046
		h-5.173v0.525h5.173V37.046z M27.111,34.924H24.97v0.525h2.142V34.924z M44.668,34.924h-2.143v0.525h2.143V34.924z M27.111,37.046
		H24.97v0.525h2.142V37.046z M44.668,37.046h-2.143v0.525h2.143V37.046z M44.668,39.176H24.986v0.525h19.682V39.176z M31.598,41.369
		H24.97v0.525h6.628V41.369z M31.598,43.472H24.97v0.525h6.628V43.472z M31.598,45.613H24.97v0.525h6.628V45.613z M44.668,41.369
		H38.04v0.525h6.628V41.369z M44.668,43.472H38.04v0.525h6.628V43.472z M44.668,45.613H38.04v0.525h6.628V45.613z"/>
</g>
</svg>
