<?xml version="1.0" encoding="utf-8"?>
<!-- Generator: Adobe Illustrator 16.0.4, SVG Export Plug-In . SVG Version: 6.00 Build 0)  -->
<!DOCTYPE svg PUBLIC "-//W3C//DTD SVG 1.1//EN" "http://www.w3.org/Graphics/SVG/1.1/DTD/svg11.dtd">
<svg version="1.1" id="Layer_1" xmlns="http://www.w3.org/2000/svg" xmlns:xlink="http://www.w3.org/1999/xlink" x="0px" y="0px"
	 width="72px" height="72px" viewBox="0 0 72 72" enable-background="new 0 0 72 72" xml:space="preserve">
<path fill="none" stroke="#C22C26" stroke-width="0.1604" stroke-miterlimit="10" d="M21.795,35.302"/>
<g>
	<path fill="#FFFFFF" d="M49.215,36.594"/>
	<g>
		<rect x="23.146" y="37.166" fill="#FFFFFF" width="9.55" height="11.616"/>
		<polygon fill="#FFFFFF" points="35.399,37.166 35.399,48.782 44.931,48.782 44.949,37.166 		"/>
	</g>
	<path fill="#FFFFFF" d="M41.246,28.882c0.853-0.693,1.408-1.737,1.408-2.921c0-2.086-1.691-4.085-3.777-4.085
		c0,0-3.543-0.667-4.814,2.728c-1.229-3.27-4.812-2.728-4.812-2.728c-2.086,0-3.777,1.999-3.777,4.085
		c0,1.185,0.556,2.229,1.408,2.921h-5.443v7.285H32.69v-6.469l1.372-0.017l1.332,0.016v6.469h11.254v-7.285H41.246z M29.589,28.692
		c-1.532,0-2.773-1.242-2.773-2.774c0-1.532,1.569-2.774,3.102-2.774c0,0,3.458-0.214,3.458,5.506L29.589,28.692z M38.191,23.144
		c1.531,0,3.102,1.242,3.102,2.774c0,1.532-1.242,2.774-2.773,2.774l-3.787-0.042C34.732,22.93,38.191,23.144,38.191,23.144z"/>
</g>
</svg>
