<?xml version="1.0" encoding="utf-8"?>
<!-- Generator: Adobe Illustrator 16.0.4, SVG Export Plug-In . SVG Version: 6.00 Build 0)  -->
<!DOCTYPE svg PUBLIC "-//W3C//DTD SVG 1.1//EN" "http://www.w3.org/Graphics/SVG/1.1/DTD/svg11.dtd">
<svg version="1.1" id="Layer_1" xmlns="http://www.w3.org/2000/svg" xmlns:xlink="http://www.w3.org/1999/xlink" x="0px" y="0px"
	 width="72px" height="72px" viewBox="0 0 72 72" enable-background="new 0 0 72 72" xml:space="preserve">
<g>
	<path fill="#FFFFFF" d="M27.188,30.937c-3.843,0-6.958,3.113-6.958,6.958c0,3.844,3.115,6.957,6.958,6.957
		c3.844,0,6.958-3.113,6.958-6.957C34.146,34.05,31.031,30.937,27.188,30.937z M27.188,41.061c-1.749,0-3.167-1.418-3.167-3.166
		c0-1.75,1.418-3.168,3.167-3.168c1.75,0,3.167,1.418,3.167,3.168C30.354,39.643,28.938,41.061,27.188,41.061z"/>
	<path fill="#FFFFFF" d="M49.656,37.5l0.049-5.078c0-2.937-3.133-3.279-3.133-3.279h-1.988v-3.86h-1.619v3.86h-8.414l-1.367-1.66
		l1.01-0.831l-0.777-0.942l-2.99,2.464l0.775,0.94l1.041-0.854l1.143,1.388l-0.592,0.727c-0.084-0.061-0.137-0.094-0.137-0.094
		c-5.792-4.375-11.066,0.258-11.066,0.258l0.709,0.788c0,0,4.647-4.083,9.752-0.227c0,0,3.112,1.956,3.199,6.414l1.036,0.047
		c0-0.008-0.001-0.015-0.001-0.022l9.684-0.028v1.35c-1.371,0.281-2.401,1.494-2.401,2.949c0,1.662,1.349,3.012,3.012,3.012
		s3.011-1.35,3.011-3.012c0-1.455-1.029-2.668-2.4-2.949v-1.352L49.656,37.5z M46.652,31.573h2.111v0.497h-2.111V31.573z
		 M46.646,32.76h2.111v0.496h-2.111V32.76z M46.646,33.947h2.111v0.496h-2.111V33.947z M47.949,41.807
		c0,0.758-0.613,1.371-1.37,1.371s-1.371-0.613-1.371-1.371s0.614-1.371,1.371-1.371S47.949,41.049,47.949,41.807z M46.646,35.629
		v-0.497h2.111v0.497H46.646z"/>
</g>
</svg>
