<?xml version="1.0" encoding="utf-8"?>
<!-- Generator: Adobe Illustrator 16.0.4, SVG Export Plug-In . SVG Version: 6.00 Build 0)  -->
<!DOCTYPE svg PUBLIC "-//W3C//DTD SVG 1.1//EN" "http://www.w3.org/Graphics/SVG/1.1/DTD/svg11.dtd">
<svg version="1.1" id="Layer_1" xmlns="http://www.w3.org/2000/svg" xmlns:xlink="http://www.w3.org/1999/xlink" x="0px" y="0px"
	 width="72px" height="72px" viewBox="0 0 72 72" enable-background="new 0 0 72 72" xml:space="preserve">
<path fill="#FFFFFF" d="M52.75,36.426c0,9.242-7.49,16.732-16.73,16.732s-16.73-7.49-16.73-16.732c0-9.242,7.49-16.731,16.73-16.731
	S52.75,27.184,52.75,36.426z M33.977,24.979v6.08c0,0.166-0.061,0.31-0.182,0.432s-0.266,0.184-0.434,0.184
	c-0.164,0-0.311-0.062-0.432-0.184s-0.18-0.266-0.18-0.432v-6.08h-1.23v6.08c0,0.166-0.061,0.31-0.182,0.432
	c-0.123,0.122-0.266,0.184-0.434,0.184s-0.311-0.062-0.432-0.184c-0.123-0.122-0.182-0.266-0.182-0.432v-6.08h-1.229v8.231
	c0,0.391,0.115,0.745,0.34,1.065c0.225,0.319,0.992,0.544,1.357,0.671v14.648h2.748V34.946c0.363-0.127,1.129-0.352,1.359-0.671
	c0.225-0.32,0.34-0.675,0.34-1.065v-8.231H33.977z M41.408,23.259c-1.828,0-2.787,1.617-2.787,3.072v10.873
	c0,0.084,0.029,0.155,0.092,0.215c0.061,0.062,0.131,0.092,0.217,0.092h1.021v12.084h3.025l-0.027-26.312L41.408,23.259z"/>
</svg>
