<?xml version="1.0" encoding="utf-8"?>
<!-- Generator: Adobe Illustrator 16.0.4, SVG Export Plug-In . SVG Version: 6.00 Build 0)  -->
<!DOCTYPE svg PUBLIC "-//W3C//DTD SVG 1.1//EN" "http://www.w3.org/Graphics/SVG/1.1/DTD/svg11.dtd">
<svg version="1.1" id="Layer_1" xmlns="http://www.w3.org/2000/svg" xmlns:xlink="http://www.w3.org/1999/xlink" x="0px" y="0px"
	 width="72px" height="72px" viewBox="0 0 72 72" enable-background="new 0 0 72 72" xml:space="preserve">
<g>
	<path fill-rule="evenodd" clip-rule="evenodd" fill="#FFFFFF" d="M48.149,45.45c-0.968-3.105-1.933-6.211-2.901-9.314
		c-0.025-0.082-0.016-0.141,0.035-0.211c0.286-0.402,0.438-0.848,0.357-1.348c-0.04-0.254-0.096-0.506-0.157-0.756
		c-0.372-1.506-0.925-2.939-1.702-4.283c-0.285-0.494-0.604-0.963-1.026-1.352c-0.67-0.613-1.722-0.645-2.429-0.078
		c-0.299,0.24-0.529,0.537-0.699,0.881c-0.479,0.967-0.871,1.963-1.035,3.037c-0.016,0.102-0.059,0.166-0.144,0.227
		c-1.192,0.84-2.38,1.682-3.569,2.523c-0.033,0.025-0.067,0.051-0.104,0.078c0.218,0.297,0.427,0.584,0.64,0.871
		c0.101-0.037,0.192-0.07,0.289-0.107c0.023,0.037,0.045,0.068,0.062,0.102c1.069,1.871,2.138,3.744,3.202,5.621
		c0.034,0.061,0.049,0.148,0.035,0.215c-0.257,1.324-0.521,2.648-0.781,3.971c-0.042,0.211-0.081,0.42-0.124,0.637
		c0.707,0.178,1.401,0.352,2.1,0.525c0.215-0.68,0.425-1.346,0.641-2.031c0.041,0.053,0.067,0.086,0.091,0.119
		c0.376,0.531,0.751,1.061,1.128,1.588c0.027,0.037,0.076,0.086,0.113,0.084c0.268-0.01,0.537-0.033,0.824-0.055
		c-0.026-0.049-0.043-0.086-0.064-0.121c-0.577-1.012-1.154-2.021-1.734-3.033c-0.044-0.076-0.054-0.143-0.029-0.229
		c0.236-0.84,0.467-1.682,0.701-2.52c0.017-0.061,0.045-0.121,0.082-0.172c0.342-0.447,0.686-0.895,1.029-1.34
		c0.021-0.029,0.047-0.055,0.08-0.092c1.227,2.586,2.444,5.158,3.668,7.74c0.498-0.355,0.982-0.701,1.467-1.047
		c0-0.01,0-0.018,0-0.025C48.179,45.521,48.16,45.485,48.149,45.45z M41.66,35.194c-0.612,1.186-1.232,2.369-1.83,3.564
		c-0.17,0.344-0.27,0.723-0.402,1.084c-0.014,0.039-0.026,0.078-0.049,0.141c-0.879-1.604-1.747-3.188-2.623-4.781
		c0.169-0.07,0.326-0.135,0.484-0.199c0.793-0.328,1.588-0.652,2.381-0.986c0.064-0.025,0.129-0.084,0.167-0.143
		c0.253-0.404,0.498-0.812,0.757-1.236c0.028,0.055,0.05,0.094,0.068,0.135c0.352,0.736,0.7,1.473,1.055,2.209
		C41.707,35.06,41.699,35.12,41.66,35.194z"/>
	<path fill-rule="evenodd" clip-rule="evenodd" fill="#FFFFFF" d="M40.001,27.739c0.809-0.012,1.767-0.662,1.771-1.818
		c0.001-1-0.804-1.801-1.806-1.799c-0.976,0.004-1.754,0.795-1.756,1.787C38.211,26.925,39.012,27.757,40.001,27.739z"/>
	<path fill-rule="evenodd" clip-rule="evenodd" fill="#FFFFFF" d="M45.364,32.3c0.062,0.133,0.13,0.207,0.253,0.174
		c0.615-0.008,1.043-0.273,1.304-0.801c0.022-0.045,0.024-0.119,0.003-0.166c-0.709-1.502-1.423-3.004-2.14-4.502
		c-0.022-0.047-0.08-0.094-0.129-0.105c-0.632-0.158-1.08,0.051-1.37,0.635c-0.048,0.098-0.048,0.178-0.002,0.277
		C43.98,29.306,44.676,30.802,45.364,32.3z"/>
	<path fill-rule="evenodd" clip-rule="evenodd" fill="#FFFFFF" d="M33.381,35.601c-0.029-0.094-0.02-0.158,0.038-0.238
		c0.323-0.453,0.493-0.953,0.403-1.514c-0.047-0.283-0.108-0.566-0.178-0.848c-0.418-1.689-1.039-3.301-1.912-4.812
		c-0.32-0.553-0.677-1.08-1.152-1.516c-0.752-0.688-1.935-0.725-2.727-0.088c-0.337,0.27-0.597,0.604-0.787,0.988
		c-0.537,1.088-0.979,2.205-1.162,3.41c-0.018,0.113-0.066,0.189-0.162,0.256c-1.338,0.941-2.672,1.887-4.008,2.834
		c-0.037,0.027-0.074,0.055-0.117,0.088c0.244,0.332,0.48,0.654,0.719,0.98c0.111-0.043,0.215-0.082,0.324-0.123
		c0.025,0.041,0.05,0.076,0.07,0.113c1.2,2.104,2.4,4.207,3.597,6.314c0.038,0.066,0.054,0.166,0.039,0.242
		c-0.289,1.486-0.584,2.973-0.878,4.459c-0.047,0.234-0.092,0.469-0.139,0.715c0.795,0.199,1.572,0.395,2.358,0.59
		c0.241-0.764,0.478-1.512,0.719-2.281c0.045,0.059,0.075,0.096,0.103,0.135c0.422,0.594,0.842,1.189,1.267,1.781
		c0.03,0.043,0.085,0.098,0.126,0.096c0.303-0.012,0.604-0.039,0.926-0.061c-0.029-0.057-0.049-0.098-0.071-0.139
		c-0.647-1.135-1.296-2.27-1.946-3.404c-0.051-0.086-0.062-0.16-0.035-0.258c0.266-0.943,0.525-1.889,0.788-2.83
		c0.019-0.068,0.05-0.137,0.093-0.193c0.383-0.502,0.77-1.004,1.154-1.504c0.025-0.033,0.055-0.062,0.092-0.105
		c1.376,2.906,2.744,5.795,4.119,8.695c0.558-0.398,1.102-0.787,1.646-1.176c0-0.01,0-0.02,0-0.029
		c-0.017-0.039-0.037-0.078-0.049-0.119C35.553,42.573,34.467,39.085,33.381,35.601z M29.352,34.542
		c-0.689,1.332-1.386,2.662-2.055,4.004c-0.193,0.385-0.305,0.811-0.453,1.217c-0.017,0.043-0.031,0.088-0.056,0.158
		c-0.987-1.799-1.962-3.578-2.944-5.369c0.188-0.078,0.365-0.152,0.542-0.225c0.892-0.367,1.784-0.732,2.674-1.105
		c0.073-0.031,0.146-0.096,0.188-0.164c0.283-0.451,0.559-0.91,0.85-1.389c0.032,0.062,0.057,0.107,0.078,0.152
		c0.395,0.828,0.786,1.656,1.184,2.482C29.402,34.392,29.395,34.458,29.352,34.542z"/>
	<path fill-rule="evenodd" clip-rule="evenodd" fill="#FFFFFF" d="M27.486,26.171c0.909-0.014,1.983-0.746,1.99-2.043
		c0-1.123-0.902-2.021-2.027-2.02c-1.096,0.002-1.971,0.893-1.972,2.008C25.477,25.255,26.377,26.188,27.486,26.171z"/>
	<path fill-rule="evenodd" clip-rule="evenodd" fill="#FFFFFF" d="M33.512,31.292c0.068,0.148,0.145,0.23,0.283,0.195
		c0.691-0.008,1.171-0.309,1.464-0.9c0.024-0.051,0.027-0.135,0.003-0.186c-0.797-1.688-1.598-3.373-2.402-5.057
		c-0.025-0.053-0.09-0.105-0.145-0.117c-0.709-0.178-1.213,0.055-1.539,0.713c-0.055,0.107-0.055,0.197-0.002,0.311
		C31.957,27.929,32.737,29.61,33.512,31.292z"/>
</g>
</svg>
