<?xml version="1.0" encoding="utf-8"?>
<!-- Generator: Adobe Illustrator 16.0.4, SVG Export Plug-In . SVG Version: 6.00 Build 0)  -->
<!DOCTYPE svg PUBLIC "-//W3C//DTD SVG 1.1//EN" "http://www.w3.org/Graphics/SVG/1.1/DTD/svg11.dtd">
<svg version="1.1" id="Layer_1" xmlns="http://www.w3.org/2000/svg" xmlns:xlink="http://www.w3.org/1999/xlink" x="0px" y="0px"
	 width="72px" height="72px" viewBox="0 0 72 72" enable-background="new 0 0 72 72" xml:space="preserve">
<g>
	<path fill="#FFFFFF" d="M34.307,29.146c0.81,0,1.508-0.295,2.1-0.887c0.59-0.592,0.885-1.301,0.885-2.133
		c0-0.809-0.295-1.508-0.885-2.098c-0.592-0.592-1.29-0.887-2.1-0.887c-0.811,0-1.51,0.295-2.1,0.887
		c-0.592,0.59-0.885,1.289-0.885,2.098c0,0.832,0.293,1.541,0.885,2.133C32.797,28.852,33.496,29.146,34.307,29.146z"/>
	<path fill="#FFFFFF" d="M39.67,45.596c-0.057-0.186-0.115-0.277-0.18-0.277c-0.789-0.066-1.357-0.285-1.707-0.656
		c-0.351-0.371-0.525-1.07-0.525-2.1v-5.15c0-0.742,0.033-1.662,0.099-2.754c0.065-1.096,0.121-2.023,0.165-2.789
		c0.021-0.109-0.027-0.209-0.148-0.297c-0.119-0.086-0.311-0.131-0.574-0.131c-0.109,0-0.24,0.033-0.393,0.1
		c-0.153,0.064-0.263,0.119-0.328,0.162c-0.723,0.348-1.74,0.766-3.051,1.254c-1.313,0.49-2.494,0.842-3.543,1.061
		c-0.065,0-0.127,0.088-0.182,0.262c-0.055,0.176-0.081,0.318-0.081,0.426c0,0.111,0.026,0.248,0.081,0.412s0.116,0.256,0.182,0.277
		c0.809,0.088,1.383,0.264,1.723,0.525c0.338,0.264,0.507,0.834,0.507,1.711v4.932c0,1.049-0.169,1.75-0.507,2.1
		c-0.34,0.35-0.914,0.568-1.723,0.656c-0.065,0.021-0.127,0.119-0.182,0.295s-0.081,0.318-0.081,0.426
		c0,0.131,0.026,0.285,0.081,0.459c0.055,0.176,0.116,0.264,0.182,0.264c0.656,0,1.432-0.027,2.328-0.082
		c0.896-0.057,1.718-0.082,2.461-0.082c0.766,0,1.656,0.025,2.674,0.082c1.018,0.055,1.865,0.082,2.543,0.082
		c0.064,0,0.123-0.088,0.18-0.264c0.055-0.174,0.082-0.328,0.082-0.459C39.752,45.932,39.725,45.783,39.67,45.596z"/>
</g>
</svg>
