<?xml version="1.0" encoding="utf-8"?>
<!-- Generator: Adobe Illustrator 20.1.0, SVG Export Plug-In . SVG Version: 6.00 Build 0)  -->
<!DOCTYPE svg PUBLIC "-//W3C//DTD SVG 1.1//EN" "http://www.w3.org/Graphics/SVG/1.1/DTD/svg11.dtd">
<svg version="1.1" id="Layer_1" xmlns="http://www.w3.org/2000/svg" xmlns:xlink="http://www.w3.org/1999/xlink" x="0px" y="0px"
	 viewBox="0 0 19 19" style="enable-background:new 0 0 19 19;" xml:space="preserve">
<style type="text/css">
	.st0{fill:none;}
	.st1{fill:#42565B;stroke:#08262C;stroke-width:0.5;stroke-miterlimit:10;}
	.st2{fill:none;stroke:#C22C26;stroke-width:0.1604;stroke-miterlimit:10;}
	.st3{fill:#FFFFFF;}
</style>
<title>square-15.svg</title>
<rect x="0.1" class="st0" width="19" height="19"/>
<path class="st1" d="M15.1,16h-11c-0.6,0-1-0.4-1-1V4c0-0.6,0.4-1,1-1h11c0.6,0,1,0.4,1,1v11C16.1,15.6,15.7,16,15.1,16z"/>
<path class="st2" d="M9.6,9.5"/>
<path class="st3" d="M8.6,5.3c2.3,0.1,3.3,2.1,3.3,2.1c0.9,2-0.3,3.2-0.3,3.2c-0.8,0.9-2,0.1-2,0.1c-0.7-0.3-1.4,0.4-1.4,0.4
	c-2.6,1.9-3.4-1.4-3.4-1.4c-0.6-2.7,1.7-4,1.7-4C7.3,5.3,8.6,5.3,8.6,5.3z M7.4,7.4C7.7,7.4,8,7.1,8,6.8c0-0.3-0.3-0.6-0.6-0.6
	c-0.3,0-0.6,0.3-0.6,0.6S7.1,7.4,7.4,7.4z M6,8.2c0.3,0,0.5-0.3,0.5-0.5S6.3,7.2,6,7.2c-0.3,0-0.5,0.3-0.5,0.5C5.5,8,5.8,8.2,6,8.2z
	 M9.1,7.1c0.3,0,0.5-0.3,0.5-0.5S9.4,6.1,9.1,6.1S8.6,6.4,8.6,6.6C8.6,6.9,8.8,7.1,9.1,7.1z M5.7,9.6c0.3,0,0.4-0.2,0.4-0.4
	S5.9,8.8,5.7,8.8c-0.3,0-0.4,0.2-0.4,0.4C5.3,9.4,5.5,9.6,5.7,9.6z M10.5,7.8c0.3,0,0.4-0.2,0.4-0.4c0-0.3-0.2-0.4-0.4-0.4
	C10.2,7,10,7.1,10,7.4C10,7.6,10.3,7.8,10.5,7.8z M6.1,10.9c0.2,0,0.3-0.2,0.3-0.3c0-0.2-0.2-0.3-0.3-0.3c-0.2,0-0.3,0.2-0.3,0.3
	C5.9,10.7,5.9,10.9,6.1,10.9z M8.8,10.5c0.3,0,0.5-0.3,0.5-0.5c0-0.3-0.3-0.5-0.5-0.5c-0.3,0-0.5,0.3-0.5,0.5
	C8.3,10.3,8.5,10.5,8.8,10.5z M14.4,6.4c0,0-0.1,0.3-0.4,0.6c0,0-0.8,0.7-0.3,1.2c-0.5,0.4-1.4,2.6-1.6,3.2l-0.9,2.1l0,0
	c0,0.1,0,0.3,0.2,0.3c0.1,0.1,0.3,0,0.3-0.1l0,0l1-2.1c0.3-0.6,1.4-2.8,1.3-3.4c0.1,0,0.3-0.1,0.5-0.3C14.9,7.4,14.5,6.6,14.4,6.4z"
	/>
</svg>
