<?xml version="1.0" encoding="utf-8"?>
<!-- Generator: Adobe Illustrator 20.1.0, SVG Export Plug-In . SVG Version: 6.00 Build 0)  -->
<!DOCTYPE svg PUBLIC "-//W3C//DTD SVG 1.1//EN" "http://www.w3.org/Graphics/SVG/1.1/DTD/svg11.dtd">
<svg version="1.1" id="Layer_1" xmlns="http://www.w3.org/2000/svg" xmlns:xlink="http://www.w3.org/1999/xlink" x="0px" y="0px"
	 viewBox="0 0 19 19" style="enable-background:new 0 0 19 19;" xml:space="preserve">
<style type="text/css">
	.st0{fill:none;}
	.st1{fill:#42565B;stroke:#08262C;stroke-width:0.5;stroke-miterlimit:10;}
	.st2{fill:none;stroke:#C22C26;stroke-width:0.1604;stroke-miterlimit:10;}
	.st3{fill:#FFFFFF;}
</style>
<title>square-15.svg</title>
<rect x="0.1" class="st0" width="19" height="19"/>
<path class="st1" d="M15.1,16h-11c-0.6,0-1-0.4-1-1V4c0-0.6,0.4-1,1-1h11c0.6,0,1,0.4,1,1v11C16.1,15.6,15.7,16,15.1,16z"/>
<path class="st2" d="M9.6,9.5"/>
<path class="st3" d="M8.4,4.6c2.7,0.1,3.9,2.5,3.9,2.5c1.1,2.3-0.4,3.8-0.4,3.8C11,11.9,9.5,11,9.5,11c-0.8-0.4-1.6,0.5-1.6,0.5
	c-3.1,2.2-4-1.7-4-1.7c-0.7-3.2,2-4.7,2-4.7C6.9,4.6,8.4,4.6,8.4,4.6z M7,7c0.4,0,0.7-0.3,0.7-0.7c0-0.4-0.3-0.7-0.7-0.7
	c-0.4,0-0.7,0.3-0.7,0.7S6.6,7,7,7z M5.4,8C5.8,8,6,7.7,6,7.4c0-0.3-0.3-0.6-0.6-0.6c-0.3,0-0.6,0.3-0.6,0.6S5.1,8,5.4,8z M9,6.7
	c0.3,0,0.6-0.3,0.6-0.6c0-0.3-0.3-0.6-0.6-0.6S8.4,5.8,8.4,6.1C8.4,6.4,8.7,6.7,9,6.7z M5,9.6c0.3,0,0.5-0.2,0.5-0.5S5.3,8.6,5,8.6
	S4.5,8.8,4.5,9.1C4.6,9.4,4.8,9.6,5,9.6z M10.6,7.5c0.3,0,0.5-0.2,0.5-0.5s-0.2-0.5-0.5-0.5S10.1,6.7,10.1,7S10.4,7.5,10.6,7.5z
	 M5.5,11.1c0.2,0,0.4-0.2,0.4-0.4s-0.2-0.4-0.4-0.4c-0.2,0-0.4,0.2-0.4,0.4C5.2,10.9,5.3,11.1,5.5,11.1z M8.7,10.7
	c0.3,0,0.6-0.3,0.6-0.6S9,9.5,8.7,9.5s-0.6,0.3-0.6,0.6C8.1,10.4,8.3,10.7,8.7,10.7z M15.2,5.9c0,0-0.1,0.4-0.5,0.7
	c0,0-0.9,0.8-0.3,1.4c-0.6,0.5-1.6,3.1-1.9,3.8l-1.1,2.5l0,0c0,0.1,0,0.3,0.2,0.3c0.1,0.1,0.3,0,0.4-0.1l0,0l1.2-2.5
	c0.3-0.7,1.6-3.3,1.5-4c0.1,0,0.4-0.1,0.6-0.4C15.8,7,15.3,6.1,15.2,5.9z"/>
</svg>
