<?xml version="1.0" encoding="utf-8"?>
<!-- Generator: Adobe Illustrator 20.1.0, SVG Export Plug-In . SVG Version: 6.00 Build 0)  -->
<!DOCTYPE svg PUBLIC "-//W3C//DTD SVG 1.1//EN" "http://www.w3.org/Graphics/SVG/1.1/DTD/svg11.dtd">
<svg version="1.1" id="Layer_1" xmlns="http://www.w3.org/2000/svg" xmlns:xlink="http://www.w3.org/1999/xlink" x="0px" y="0px"
	 viewBox="0 0 19 19" style="enable-background:new 0 0 19 19;" xml:space="preserve">
<style type="text/css">
	.st0{fill:none;}
	.st1{fill:#5B871D;stroke:#2E592E;stroke-width:0.5;stroke-miterlimit:10;}
	.st2{fill:none;stroke:#C22C26;stroke-width:0.1604;stroke-miterlimit:10;}
	.st3{fill:#FFFFFF;}
</style>
<title>square-15.svg</title>
<rect x="0.1" class="st0" width="19" height="19"/>
<path class="st1" d="M15.1,16h-11c-0.6,0-1-0.4-1-1V4c0-0.6,0.4-1,1-1h11c0.6,0,1,0.4,1,1v11C16.1,15.6,15.7,16,15.1,16z"/>
<path class="st2" d="M9.6,9.5"/>
<g>
	<path class="st3" d="M6.7,7.9c-1.5,0-2.6,1.2-2.6,2.6c0,1.5,1.2,2.6,2.6,2.6c1.5,0,2.6-1.2,2.6-2.6C9.3,9.1,8.2,7.9,6.7,7.9z
		 M6.7,11.8c-0.7,0-1.2-0.5-1.2-1.2S6,9.4,6.7,9.4s1.2,0.5,1.2,1.2C7.9,11.2,7.4,11.8,6.7,11.8z"/>
	<path class="st3" d="M15.2,10.4V8.5c0-1.1-1.2-1.2-1.2-1.2h-0.8V5.8h-0.6v1.5H9.5L9,6.6l0.4-0.3L9.1,6L7.9,6.9l0.3,0.4L8.6,7L9,7.5
		L8.8,7.7H8.7C6.6,6,4.6,7.8,4.6,7.8l0.3,0.3c0,0,1.8-1.5,3.7-0.1c0,0,1.2,0.7,1.2,2.4h0.4l0,0h3.7v0.5C13.4,11,13,11.5,13,12
		c0,0.6,0.5,1.1,1.1,1.1s1.1-0.5,1.1-1.1s-0.4-1-0.9-1.1v-0.5H15.2z M14.1,8.2h0.8v0.2h-0.8V8.2z M14.1,8.6h0.8v0.2h-0.8V8.6z
		 M14.1,9.1h0.8v0.2h-0.8V9.1z M14.6,12c0,0.3-0.2,0.5-0.5,0.5s-0.5-0.2-0.5-0.5s0.2-0.5,0.5-0.5C14.3,11.5,14.6,11.8,14.6,12z
		 M14.1,9.7V9.5h0.8v0.2H14.1z"/>
</g>
</svg>
