<?xml version="1.0" encoding="utf-8"?>
<!-- Generator: Adobe Illustrator 20.1.0, SVG Export Plug-In . SVG Version: 6.00 Build 0)  -->
<!DOCTYPE svg PUBLIC "-//W3C//DTD SVG 1.1//EN" "http://www.w3.org/Graphics/SVG/1.1/DTD/svg11.dtd">
<svg version="1.1" id="Layer_1" xmlns="http://www.w3.org/2000/svg" xmlns:xlink="http://www.w3.org/1999/xlink" x="0px" y="0px"
	 viewBox="0 0 19 19" style="enable-background:new 0 0 19 19;" xml:space="preserve">
<style type="text/css">
	.st0{fill:none;}
	.st1{fill:#5B871D;stroke:#2E592E;stroke-width:0.5;stroke-miterlimit:10;}
	.st2{fill:none;stroke:#C22C26;stroke-width:0.1604;stroke-miterlimit:10;}
	.st3{fill:#FFFFFF;}
</style>
<title>square-15.svg</title>
<rect x="0.1" class="st0" width="19" height="19"/>
<path class="st1" d="M15.1,16h-11c-0.6,0-1-0.4-1-1V4c0-0.6,0.4-1,1-1h11c0.6,0,1,0.4,1,1v11C16.1,15.6,15.7,16,15.1,16z"/>
<path class="st2" d="M9.6,9.5"/>
<g>
	<path class="st3" d="M7,8.1c-1.4,0-2.3,1.1-2.3,2.3c0,1.4,1.1,2.3,2.3,2.3c1.4,0,2.3-1.1,2.3-2.3C9.3,9.1,8.3,8.1,7,8.1z M7,11.6
		c-0.6,0-1.1-0.5-1.1-1.1S6.4,9.4,7,9.4s1.1,0.5,1.1,1.1C8.1,11,7.6,11.6,7,11.6z"/>
	<path class="st3" d="M14.6,10.3V8.6c0-1-1.1-1.1-1.1-1.1h-0.7V6.2h-0.5v1.4H9.5L9.1,6.9l0.4-0.3L9.2,6.3L8.1,7.2l0.3,0.4l0.4-0.3
		l0.4,0.5L8.9,7.9H8.8C6.9,6.3,5.1,8,5.1,8l0.3,0.3c0,0,1.6-1.4,3.3-0.1c0,0,1.1,0.6,1.1,2.2h0.4l0,0h3.3v0.5
		c-0.5,0.1-0.8,0.5-0.8,1c0,0.5,0.5,1,1,1s1-0.5,1-1s-0.4-0.9-0.8-1v-0.5H14.6z M13.7,8.3h0.7v0.2h-0.7V8.3z M13.7,8.7h0.7v0.2h-0.7
		V8.7z M13.7,9.1h0.7v0.2h-0.7V9.1z M14.1,11.7c0,0.3-0.2,0.5-0.5,0.5s-0.5-0.2-0.5-0.5s0.2-0.5,0.5-0.5
		C13.8,11.3,14.1,11.6,14.1,11.7z M13.7,9.7V9.5h0.7v0.2H13.7z"/>
</g>
</svg>
