<?xml version="1.0" encoding="utf-8"?>
<!-- Generator: Adobe Illustrator 20.1.0, SVG Export Plug-In . SVG Version: 6.00 Build 0)  -->
<!DOCTYPE svg PUBLIC "-//W3C//DTD SVG 1.1//EN" "http://www.w3.org/Graphics/SVG/1.1/DTD/svg11.dtd">
<svg version="1.1" id="Layer_1" xmlns="http://www.w3.org/2000/svg" xmlns:xlink="http://www.w3.org/1999/xlink" x="0px" y="0px"
	 viewBox="0 0 19 19" style="enable-background:new 0 0 19 19;" xml:space="preserve">
<style type="text/css">
	.st0{fill:none;}
	.st1{fill:#2E592E;}
	.st2{fill:none;stroke:#C22C26;stroke-width:0.1604;stroke-miterlimit:10;}
	.st3{fill:#FFFFFF;}
</style>
<title>square-15.svg</title>
<rect x="0.1" y="0" class="st0" width="19" height="19"/>
<path class="st1" d="M15.1,16h-11c-0.6,0-1-0.4-1-1V4c0-0.6,0.4-1,1-1h11c0.6,0,1,0.4,1,1v11C16.1,15.6,15.7,16,15.1,16z"/>
<path class="st2" d="M9.6,9.5"/>
<path class="st3" d="M15.3,9.5c0,3.1-2.5,5.7-5.7,5.7s-5.7-2.5-5.7-5.7s2.5-5.7,5.7-5.7S15.3,6.4,15.3,9.5z M8.9,5.6v2.1
	c0,0.1,0,0.1-0.1,0.1c0,0-0.1,0.1-0.1,0.1c-0.1,0-0.1,0-0.1-0.1c0,0-0.1-0.1-0.1-0.1V5.6H8.1v2.1c0,0.1,0,0.1-0.1,0.1
	c0,0-0.1,0.1-0.1,0.1s-0.1,0-0.1-0.1c0,0-0.1-0.1-0.1-0.1V5.6H7.3v2.8c0,0.1,0,0.3,0.1,0.4C7.5,8.9,7.7,9,7.8,9v5h0.9V9
	c0.1,0,0.4-0.1,0.5-0.2c0.1-0.1,0.1-0.2,0.1-0.4V5.6H8.9z M11.5,5c-0.6,0-0.9,0.6-0.9,1v3.7c0,0,0,0.1,0,0.1c0,0,0,0,0.1,0H11V14h1
	l0-9L11.5,5z"/>
</svg>
