<?xml version="1.0" encoding="utf-8"?>
<!-- Generator: Adobe Illustrator 20.1.0, SVG Export Plug-In . SVG Version: 6.00 Build 0)  -->
<!DOCTYPE svg PUBLIC "-//W3C//DTD SVG 1.1//EN" "http://www.w3.org/Graphics/SVG/1.1/DTD/svg11.dtd">
<svg version="1.1" id="Layer_1" xmlns="http://www.w3.org/2000/svg" xmlns:xlink="http://www.w3.org/1999/xlink" x="0px" y="0px"
	 viewBox="0 0 19 19" style="enable-background:new 0 0 19 19;" xml:space="preserve">
<style type="text/css">
	.st0{fill:none;}
	.st1{fill:#2E592E;}
	.st2{fill:none;stroke:#C22C26;stroke-width:0.1604;stroke-miterlimit:10;}
	.st3{fill:#FFFFFF;}
</style>
<title>square-15.svg</title>
<rect x="0.1" class="st0" width="19" height="19"/>
<path class="st1" d="M15.1,16h-11c-0.6,0-1-0.4-1-1V4c0-0.6,0.4-1,1-1h11c0.6,0,1,0.4,1,1v11C16.1,15.6,15.7,16,15.1,16z"/>
<path class="st2" d="M9.6,9.5"/>
<path class="st3" d="M14.6,9.5c0,2.7-2.2,5-5,5s-5-2.2-5-5s2.2-5,5-5S14.6,6.8,14.6,9.5z M9,6.1v1.8C9,8,9,8,8.9,8L8.8,8.1
	c-0.1,0-0.1,0-0.1-0.1L8.6,7.9V6.1H8.3v1.8C8.3,8,8.3,8,8.2,8L8.1,8.1c0,0-0.1,0-0.1-0.1L7.9,7.9V6.1H7.6v2.5c0,0.1,0,0.3,0.1,0.4
	C7.8,9,7.9,9.1,8,9.1v4.4h0.8V9.1c0.1,0,0.4-0.1,0.4-0.2c0.1-0.1,0.1-0.2,0.1-0.4V6.1H9z M11.3,5.6c-0.5,0-0.8,0.5-0.8,0.9v3.2v0.1
	c0,0,0,0,0.1,0h0.3v3.7h0.9V5.6H11.3z"/>
</svg>
