<?xml version="1.0" encoding="utf-8"?>
<!-- Generator: Adobe Illustrator 20.1.0, SVG Export Plug-In . SVG Version: 6.00 Build 0)  -->
<!DOCTYPE svg PUBLIC "-//W3C//DTD SVG 1.1//EN" "http://www.w3.org/Graphics/SVG/1.1/DTD/svg11.dtd">
<svg version="1.1" id="Layer_1" xmlns="http://www.w3.org/2000/svg" xmlns:xlink="http://www.w3.org/1999/xlink" x="0px" y="0px"
	 viewBox="0 0 19 19" style="enable-background:new 0 0 19 19;" xml:space="preserve">
<style type="text/css">
	.st0{fill:none;}
	.st1{fill:#2E592E;}
	.st2{fill:none;stroke:#C22C26;stroke-width:0.1604;stroke-miterlimit:10;}
	.st3{fill:#FFFFFF;}
</style>
<title>square-15.svg</title>
<rect x="0.1" y="0.2" class="st0" width="19" height="19"/>
<path class="st1" d="M15.1,16.2h-11c-0.6,0-1-0.4-1-1v-11c0-0.6,0.4-1,1-1h11c0.6,0,1,0.4,1,1v11C16.1,15.7,15.7,16.2,15.1,16.2z"/>
<path class="st2" d="M9.6,9.2"/>
<g>
	<path class="st3" d="M15.4,10"/>
	<g>
		<rect x="5.4" y="10.2" class="st3" width="3.7" height="4.4"/>
		<polygon class="st3" points="10.1,10.2 10.1,14.7 13.8,14.7 13.8,10.2 		"/>
	</g>
	<path class="st3" d="M12.4,7c0.3-0.3,0.5-0.7,0.5-1.1c0-0.8-0.6-1.6-1.4-1.6c0,0-1.4-0.3-1.8,1c-0.5-1.3-1.8-1-1.8-1
		C7,4.4,6.3,5.1,6.3,5.9c0,0.5,0.2,0.9,0.5,1.1H4.8v2.8h4.3V7.4l0.5,0l0.5,0v2.5h4.3V7L12.4,7L12.4,7z M7.9,7C7.3,7,6.8,6.5,6.8,5.9
		S7.4,4.8,8,4.8c0,0,1.3-0.1,1.3,2.1L7.9,7z M11.2,4.8c0.6,0,1.2,0.5,1.2,1.1S11.9,7,11.3,7L9.9,7C9.9,4.8,11.2,4.8,11.2,4.8z"/>
</g>
</svg>
