<?xml version="1.0" encoding="utf-8"?>
<!-- Generator: Adobe Illustrator 20.1.0, SVG Export Plug-In . SVG Version: 6.00 Build 0)  -->
<!DOCTYPE svg PUBLIC "-//W3C//DTD SVG 1.1//EN" "http://www.w3.org/Graphics/SVG/1.1/DTD/svg11.dtd">
<svg version="1.1" id="Layer_1" xmlns="http://www.w3.org/2000/svg" xmlns:xlink="http://www.w3.org/1999/xlink" x="0px" y="0px"
	 viewBox="0 0 19 19" style="enable-background:new 0 0 19 19;" xml:space="preserve">
<style type="text/css">
	.st0{fill:none;}
	.st1{fill:#2E592E;}
	.st2{fill:none;stroke:#C22C26;stroke-width:0.1604;stroke-miterlimit:10;}
	.st3{fill:#FFFFFF;}
</style>
<title>square-15.svg</title>
<rect x="0.1" y="0.2" class="st0" width="19" height="19"/>
<path class="st1" d="M15.1,16.2h-11c-0.6,0-1-0.4-1-1v-11c0-0.6,0.4-1,1-1h11c0.6,0,1,0.4,1,1v11C16.1,15.7,15.7,16.2,15.1,16.2z"/>
<path class="st2" d="M9.6,9.2"/>
<g>
	<path class="st3" d="M15.1,10"/>
	<g>
		<rect x="5.7" y="10.2" class="st3" width="3.5" height="4.2"/>
		<polygon class="st3" points="10.1,10.2 10.1,14.4 13.6,14.4 13.6,10.2 		"/>
	</g>
	<path class="st3" d="M12.3,7.1c0.3-0.3,0.5-0.7,0.5-1c0-0.8-0.6-1.5-1.3-1.5c0,0-1.3-0.3-1.7,0.9C9.3,4.3,8,4.6,8,4.6
		C7.2,4.7,6.5,5.3,6.5,6.1c0,0.5,0.2,0.8,0.5,1H5.1v2.6h4.1V7.5h0.5h0.5v2.4h4.1V7.1H12.3L12.3,7.1z M8,7.1c-0.6,0-1-0.5-1-1
		s0.6-1,1.1-1c0,0,1.2-0.1,1.2,2L8,7.1z M11.1,5.1c0.6,0,1.1,0.5,1.1,1s-0.5,1-1,1H9.9C9.9,5.1,11.1,5.1,11.1,5.1z"/>
</g>
</svg>
