<?xml version="1.0" encoding="utf-8"?>
<!-- Generator: Adobe Illustrator 20.1.0, SVG Export Plug-In . SVG Version: 6.00 Build 0)  -->
<!DOCTYPE svg PUBLIC "-//W3C//DTD SVG 1.1//EN" "http://www.w3.org/Graphics/SVG/1.1/DTD/svg11.dtd">
<svg version="1.1" id="Layer_1" xmlns="http://www.w3.org/2000/svg" xmlns:xlink="http://www.w3.org/1999/xlink" x="0px" y="0px"
	 viewBox="0 0 19 19" style="enable-background:new 0 0 19 19;" xml:space="preserve">
<style type="text/css">
	.st0{fill:none;}
	.st1{fill:#368FB6;stroke:#42565B;stroke-width:0.5;stroke-miterlimit:10;}
	.st2{fill:#FFFFFF;}
</style>
<title>square-15.svg</title>
<rect x="0.2" y="0.2" class="st0" width="19" height="19"/>
<path class="st1" d="M15.2,16.2h-11c-0.6,0-1-0.4-1-1v-11c0-0.6,0.4-1,1-1h11c0.6,0,1,0.4,1,1v11C16.2,15.7,15.7,16.2,15.2,16.2z"/>
<g>
	<path class="st2" d="M11.4,12.3C10.8,11.9,9.7,12,9.7,12S8.6,12,8,12.4c0,0-0.3,0.3,0.1,0.5c0,0,0.7,0.2,1.6,0.2
		c0.9,0,1.6-0.2,1.6-0.2C11.7,12.6,11.4,12.3,11.4,12.3z"/>
	<path class="st2" d="M8,8.4c0-0.2-0.3-0.3-0.3-0.3C6.6,7.7,5.8,8.4,5.8,8.4c1,0.7,1.9,0.3,1.9,0.3C8,8.6,8,8.4,8,8.4z"/>
	<path class="st2" d="M11.6,8.1c0,0-0.3,0.1-0.3,0.3c0,0,0,0.2,0.3,0.3c0,0,0.9,0.4,1.9-0.3C13.6,8.4,12.7,7.7,11.6,8.1z"/>
	<path class="st2" d="M9.7,4.2c-3,0-5.5,2.5-5.5,5.5s2.5,5.5,5.5,5.5s5.5-2.5,5.5-5.5S12.7,4.2,9.7,4.2z M5.9,8.9
		C5.3,8.5,5.7,8.1,5.7,8.1C6.8,7.3,8,7.9,8,7.9c0.7,0.5,0,0.9,0,0.9C7,9.5,5.9,8.9,5.9,8.9z M9.7,13.5c-2.1,0-2.5-1.1-2.5-1.1
		s0.7-0.9,2.5-0.9c1.8-0.1,2.5,0.9,2.5,0.9S11.8,13.5,9.7,13.5z M13.4,8.9c0,0-1.1,0.6-2.1,0c0,0-0.7-0.5,0-0.9c0,0,1.2-0.7,2.3,0.2
		C13.6,8.1,14,8.5,13.4,8.9z M13.9,7.6c0,0-1.4-1-2.7-0.1c0,0-0.7,0.4-0.5,1.7c0,0,0.5,1.4-0.5,1.8c0,0-0.3,0.1-0.6,0.1S9,11,9,11
		c-1-0.4-0.5-1.8-0.5-1.8C8.7,7.9,8,7.5,8,7.5C6.9,6.6,5.4,7.6,5.4,7.6c-0.2-0.1,0-0.3,0-0.3S6.5,6.3,8,7c0,0,1.5,0.5,1.1,2.4
		c0,0-0.4,1.2,0.6,1.3c0.9,0,0.6-1.3,0.6-1.3C9.9,7.5,11.4,7,11.4,7C12.9,6.3,14,7.3,14,7.3S14.1,7.5,13.9,7.6z"/>
</g>
</svg>
