<?xml version="1.0" encoding="utf-8"?>
<!-- Generator: Adobe Illustrator 20.1.0, SVG Export Plug-In . SVG Version: 6.00 Build 0)  -->
<!DOCTYPE svg PUBLIC "-//W3C//DTD SVG 1.1//EN" "http://www.w3.org/Graphics/SVG/1.1/DTD/svg11.dtd">
<svg version="1.1" id="Layer_1" xmlns="http://www.w3.org/2000/svg" xmlns:xlink="http://www.w3.org/1999/xlink" x="0px" y="0px"
	 viewBox="0 0 19 19" style="enable-background:new 0 0 19 19;" xml:space="preserve">
<style type="text/css">
	.st0{fill:none;}
	.st1{fill:#368FB6;stroke:#42565B;stroke-width:0.5;stroke-miterlimit:10;}
	.st2{fill:#FFFFFF;}
</style>
<title>square-15.svg</title>
<rect x="0.2" y="0.2" class="st0" width="19" height="19"/>
<path class="st1" d="M15.2,16.2h-11c-0.6,0-1-0.4-1-1v-11c0-0.6,0.4-1,1-1h11c0.6,0,1,0.4,1,1v11C16.2,15.7,15.7,16.2,15.2,16.2z"/>
<g>
	<path class="st2" d="M11.2,12.1c-0.5-0.4-1.5-0.3-1.5-0.3s-1,0-1.5,0.4c0,0-0.3,0.3,0.1,0.5c0,0,0.6,0.2,1.5,0.2
		c0.8,0,1.5-0.2,1.5-0.2C11.5,12.3,11.2,12.1,11.2,12.1z"/>
	<path class="st2" d="M8.2,8.5c0-0.2-0.3-0.3-0.3-0.3c-1-0.4-1.7,0.3-1.7,0.3c0.9,0.6,1.7,0.3,1.7,0.3C8.2,8.7,8.2,8.5,8.2,8.5z"/>
	<path class="st2" d="M11.4,8.2c0,0-0.3,0.1-0.3,0.3c0,0,0,0.2,0.3,0.3c0,0,0.8,0.4,1.7-0.3C13.2,8.5,12.4,7.9,11.4,8.2z"/>
	<path class="st2" d="M9.7,4.7c-2.7,0-5,2.3-5,5s2.3,5,5,5s5-2.3,5-5S12.4,4.7,9.7,4.7z M6.2,9C5.7,8.6,6.1,8.2,6.1,8.2
		c1-0.7,2.1-0.2,2.1-0.2c0.6,0.5,0,0.8,0,0.8C7.2,9.5,6.2,9,6.2,9z M9.7,13.2c-1.9,0-2.3-1-2.3-1s0.6-0.8,2.3-0.8
		c1.6-0.1,2.3,0.8,2.3,0.8S11.6,13.2,9.7,13.2z M13.1,9c0,0-1,0.5-1.9,0c0,0-0.6-0.5,0-0.8c0,0,1.1-0.6,2.1,0.2
		C13.2,8.2,13.6,8.6,13.1,9z M13.5,7.8c0,0-1.3-0.9-2.5-0.1c0,0-0.6,0.4-0.5,1.5c0,0,0.5,1.3-0.5,1.6c0,0-0.3,0.1-0.5,0.1
		c-0.3,0-0.5-0.1-0.5-0.1c-0.9-0.4-0.5-1.6-0.5-1.6c0.2-1.2-0.5-1.5-0.5-1.5c-1-0.8-2.4,0.1-2.4,0.1c-0.2-0.1,0-0.3,0-0.3
		s1-0.9,2.4-0.3c0,0,1.4,0.5,1,2.2c0,0-0.4,1.1,0.5,1.2c0.8,0,0.5-1.2,0.5-1.2c-0.4-1.7,1-2.2,1-2.2c1.4-0.6,2.4,0.3,2.4,0.3
		S13.7,7.7,13.5,7.8z"/>
</g>
</svg>
