<?xml version="1.0" encoding="utf-8"?>
<!-- Generator: Adobe Illustrator 20.1.0, SVG Export Plug-In . SVG Version: 6.00 Build 0)  -->
<!DOCTYPE svg PUBLIC "-//W3C//DTD SVG 1.1//EN" "http://www.w3.org/Graphics/SVG/1.1/DTD/svg11.dtd">
<svg version="1.1" id="Layer_1" xmlns="http://www.w3.org/2000/svg" xmlns:xlink="http://www.w3.org/1999/xlink" x="0px" y="0px"
	 viewBox="0 0 19 19" style="enable-background:new 0 0 19 19;" xml:space="preserve">
<style type="text/css">
	.st0{fill:none;}
	.st1{fill:#2E592E;}
	.st2{fill:#FFFFFF;}
</style>
<title>square-15.svg</title>
<rect x="0.1" y="0.2" class="st0" width="19" height="19"/>
<path class="st1" d="M15.1,16.2h-11c-0.6,0-1-0.4-1-1v-11c0-0.6,0.4-1,1-1h11c0.6,0,1,0.4,1,1v11C16.1,15.7,15.7,16.2,15.1,16.2z"/>
<g>
	<path class="st2" d="M9.5,7.1c0.4,0,0.6-0.1,0.9-0.4s0.4-0.6,0.4-0.9s-0.1-0.6-0.4-0.9c-0.3-0.3-0.6-0.4-0.9-0.4S8.9,4.6,8.6,4.9
		S8.2,5.5,8.2,5.8s0.1,0.6,0.4,0.9C8.9,7,9.1,7.1,9.5,7.1z"/>
	<path class="st2" d="M11.8,14.3C11.8,14.2,11.7,14.2,11.8,14.3c-0.5-0.1-0.6-0.2-0.8-0.4s-0.2-0.5-0.2-0.9v-2.2c0-0.3,0-0.7,0-1.2
		c0.1-0.6,0.1-0.9,0.1-1.3c0-0.1,0-0.1-0.1-0.1c0-0.1-0.1-0.1-0.2-0.1s-0.1,0-0.2,0c-0.1,0-0.1,0.1-0.2,0.1C10,8.4,9.5,8.6,9,8.8
		C8.4,9,8,9.1,7.5,9.2c0,0-0.1,0-0.1,0.1s0,0.1,0,0.2c0,0.1,0,0.1,0,0.2c0,0.1,0.1,0.1,0.1,0.1C7.9,9.8,8,9.9,8.2,10
		c0.2,0.1,0.2,0.4,0.2,0.7v2.1c0,0.5-0.1,0.7-0.2,0.9C8,13.9,7.9,14,7.5,14l-0.1,0.1c0,0,0,0.1,0,0.2c0,0.1,0,0.1,0,0.2
		c0,0.1,0.1,0.1,0.1,0.1c0.3,0,0.6,0,1,0c0.4,0,0.7,0,1.1,0s0.7,0,1.2,0s0.8,0,1.1,0c0,0,0.1,0,0.1-0.1s0-0.2,0-0.2
		C11.9,14.4,11.9,14.3,11.8,14.3z"/>
</g>
</svg>
