<?xml version="1.0" encoding="utf-8"?>
<!-- Generator: Adobe Illustrator 20.1.0, SVG Export Plug-In . SVG Version: 6.00 Build 0)  -->
<!DOCTYPE svg PUBLIC "-//W3C//DTD SVG 1.1//EN" "http://www.w3.org/Graphics/SVG/1.1/DTD/svg11.dtd">
<svg version="1.1" id="Layer_1" xmlns="http://www.w3.org/2000/svg" xmlns:xlink="http://www.w3.org/1999/xlink" x="0px" y="0px"
	 viewBox="0 0 19 19" style="enable-background:new 0 0 19 19;" xml:space="preserve">
<style type="text/css">
	.st0{fill:none;}
	.st1{fill:#2E592E;}
	.st2{fill:#FFFFFF;}
</style>
<title>square-15.svg</title>
<rect x="0.1" y="0.2" class="st0" width="19" height="19"/>
<path class="st1" d="M15.1,16.2h-11c-0.6,0-1-0.4-1-1v-11c0-0.6,0.4-1,1-1h11c0.6,0,1,0.4,1,1v11C16.1,15.7,15.7,16.2,15.1,16.2z"/>
<g>
	<path class="st2" d="M9.5,6.9c0.4,0,0.7-0.1,1-0.4c0.3-0.3,0.4-0.6,0.4-1c0-0.4-0.1-0.7-0.4-1c-0.3-0.3-0.6-0.4-1-0.4
		c-0.4,0-0.7,0.1-1,0.4c-0.3,0.3-0.4,0.6-0.4,1c0,0.4,0.1,0.7,0.4,1C8.8,6.8,9.1,6.9,9.5,6.9z"/>
	<path class="st2" d="M12,14.7c0-0.1-0.1-0.1-0.1-0.1c-0.4,0-0.6-0.1-0.8-0.3c-0.2-0.2-0.2-0.5-0.2-1v-2.4c0-0.3,0-0.8,0-1.3
		C11,9,11,8.6,11,8.2c0-0.1,0-0.1-0.1-0.1C10.9,8,10.8,8,10.7,8c-0.1,0-0.1,0-0.2,0c-0.1,0-0.1,0.1-0.2,0.1C10,8.3,9.5,8.5,8.9,8.7
		C8.3,9,7.8,9.1,7.3,9.2c0,0-0.1,0-0.1,0.1c0,0.1,0,0.1,0,0.2c0,0.1,0,0.1,0,0.2c0,0.1,0.1,0.1,0.1,0.1c0.4,0,0.6,0.1,0.8,0.2
		c0.2,0.1,0.2,0.4,0.2,0.8v2.3c0,0.5-0.1,0.8-0.2,1c-0.2,0.2-0.4,0.3-0.8,0.3c0,0-0.1,0.1-0.1,0.1s0,0.1,0,0.2c0,0.1,0,0.1,0,0.2
		c0,0.1,0.1,0.1,0.1,0.1c0.3,0,0.7,0,1.1,0c0.4,0,0.8,0,1.2,0c0.4,0,0.8,0,1.3,0c0.5,0,0.9,0,1.2,0c0,0,0.1,0,0.1-0.1
		c0-0.1,0-0.2,0-0.2C12.1,14.8,12.1,14.7,12,14.7z"/>
</g>
</svg>
