<?xml version="1.0" encoding="utf-8"?>
<!-- Generator: Adobe Illustrator 20.1.0, SVG Export Plug-In . SVG Version: 6.00 Build 0)  -->
<!DOCTYPE svg PUBLIC "-//W3C//DTD SVG 1.1//EN" "http://www.w3.org/Graphics/SVG/1.1/DTD/svg11.dtd">
<svg version="1.1" id="Layer_1" xmlns="http://www.w3.org/2000/svg" xmlns:xlink="http://www.w3.org/1999/xlink" x="0px" y="0px"
	 viewBox="0 0 19 19" style="enable-background:new 0 0 19 19;" xml:space="preserve">
<style type="text/css">
	.st0{fill:none;}
	.st1{fill:#A64E28;stroke:#642B08;stroke-width:0.5;stroke-miterlimit:10;}
	.st2{fill:#FFFFFF;}
</style>
<title>square-15.svg</title>
<rect y="0.2" class="st0" width="19" height="19"/>
<path class="st1" d="M15,16.2H4c-0.6,0-1-0.4-1-1v-11c0-0.6,0.4-1,1-1h11c0.6,0,1,0.4,1,1v11C16,15.7,15.6,16.2,15,16.2z"/>
<path class="st2" d="M13.1,6.6c-0.1-0.4-0.6-0.4-0.6-0.4C13.1,5.6,12.9,5,12.9,5c-0.6-0.8-1.3-0.2-1.3-0.2c-0.4-0.4-0.8-0.2-0.8-0.2
	c-0.7,0.4-0.3,1.2-0.3,1.2C10.1,5.7,9.9,6,9.9,6c-0.6,0.6,0.4,1.1,0.4,1.2L9.9,7.9L9.6,7.8c0,0-0.6-0.4-1.1,0.3L8.2,8.9l1.4,0.9
	L9.4,10L8.1,9.3l-0.4,1l1.1,0.7l-0.2,0.3l-1.1-0.6l-0.4,1l0.9,0.5L8,12.3l-0.8-0.5l-0.8,2.5c-0.1,0.1,0,0.2,0.1,0.3
	c0.1,0.1,0.2,0,0.3-0.1l4.7-4.7c0.4-0.7-0.3-1.1-0.3-1.1l-0.4-0.2l0.4-0.7l0.1,0.1c0.8,0.6,1.1,0.3,1.1,0.3c0.4-0.4,0-0.8,0-0.8
	C13.2,7.3,13.1,6.6,13.1,6.6z M10.5,8.3l-0.2-0.1l0.4-0.7l0.2,0.2L10.5,8.3z"/>
</svg>
