<?xml version="1.0" encoding="utf-8"?>
<!-- Generator: Adobe Illustrator 20.1.0, SVG Export Plug-In . SVG Version: 6.00 Build 0)  -->
<!DOCTYPE svg PUBLIC "-//W3C//DTD SVG 1.1//EN" "http://www.w3.org/Graphics/SVG/1.1/DTD/svg11.dtd">
<svg version="1.1" id="Layer_1" xmlns="http://www.w3.org/2000/svg" xmlns:xlink="http://www.w3.org/1999/xlink" x="0px" y="0px"
	 viewBox="0 0 19 19" style="enable-background:new 0 0 19 19;" xml:space="preserve">
<style type="text/css">
	.st0{fill:none;}
	.st1{fill:#A64E28;stroke:#642B08;stroke-width:0.5;stroke-miterlimit:10;}
	.st2{fill:#FFFFFF;}
</style>
<title>square-15.svg</title>
<rect y="0.2" class="st0" width="19" height="19"/>
<path class="st1" d="M15,16.2H4c-0.6,0-1-0.4-1-1v-11c0-0.6,0.4-1,1-1h11c0.6,0,1,0.4,1,1v11C16,15.7,15.6,16.2,15,16.2z"/>
<path class="st2" d="M13.6,6.2c-0.1-0.5-0.7-0.5-0.7-0.5c0.7-0.7,0.4-1.3,0.4-1.3c-0.7-0.9-1.5-0.2-1.5-0.2C11.4,3.8,10.9,4,10.9,4
	c-0.8,0.4-0.3,1.4-0.3,1.4c-0.4-0.3-0.7,0.1-0.7,0.1c-0.7,0.7,0.4,1.3,0.5,1.4L9.9,7.7L9.6,7.5c0,0-0.7-0.5-1.2,0.3L8,8.8l1.6,1
	l-0.2,0.3L7.9,9.2l-0.4,1.1l1.3,0.8l-0.2,0.3l-1.2-0.7L7,11.8l1,0.6l-0.2,0.3l-0.9-0.6L6,15c-0.1,0.1,0,0.2,0.1,0.3s0.2,0,0.3-0.1
	l5.4-5.4c0.5-0.8-0.3-1.2-0.3-1.2l-0.4-0.2l0.5-0.8l0.1,0.1C12.6,8.4,12.9,8,12.9,8c0.5-0.5,0-0.9,0-0.9C13.7,7,13.6,6.2,13.6,6.2z
	 M10.6,8.1L10.4,8l0.5-0.8l0.2,0.2L10.6,8.1z"/>
</svg>
