<?xml version="1.0" encoding="utf-8"?>
<!-- Generator: Adobe Illustrator 20.1.0, SVG Export Plug-In . SVG Version: 6.00 Build 0)  -->
<!DOCTYPE svg PUBLIC "-//W3C//DTD SVG 1.1//EN" "http://www.w3.org/Graphics/SVG/1.1/DTD/svg11.dtd">
<svg version="1.1" id="Layer_1" xmlns="http://www.w3.org/2000/svg" xmlns:xlink="http://www.w3.org/1999/xlink" x="0px" y="0px"
	 viewBox="0 0 19 19" style="enable-background:new 0 0 19 19;" xml:space="preserve">
<style type="text/css">
	.st0{fill:none;}
	.st1{fill:#477F73;stroke:#0A5446;stroke-width:0.5;stroke-miterlimit:10;}
	.st2{fill:#FFFFFF;}
</style>
<title>square-15.svg</title>
<rect y="0.2" class="st0" width="19" height="19"/>
<path class="st1" d="M15,16.2H4c-0.6,0-1-0.4-1-1v-11c0-0.6,0.4-1,1-1h11c0.6,0,1,0.4,1,1v11C16,15.7,15.6,16.2,15,16.2z"/>
<g>
	<polygon class="st2" points="14.1,9.5 9.5,5.6 4.9,9.5 4.5,9 9.5,4.7 12,6.8 12,5.2 12.8,5.2 12.8,7.5 14.5,9 	"/>
	<path class="st2" d="M5.6,13.7V9.4l0,0l0,0l3.9-3.2l3.9,3.2l0,0l0,0v4.3h-3.3v-2.3H8.8v2.3H5.6z M10.2,6.9H8.8v0.2h1.3V6.9z
		 M10.9,7.7H8v0.2h2.9V7.7z M11.9,8.4H7.1v0.2h4.7V8.4z M8.1,9.2H7.1v0.9h0.9V9.2z M11.8,9.2h-0.9v0.9h0.9V9.2z M10.3,9.2H8.6v0.2
		h1.8V9.2z M10.3,10H8.6v0.2h1.8V10z M6.8,9.2H6v0.2h0.8L6.8,9.2L6.8,9.2z M12.9,9.2h-0.8v0.2h0.8V9.2z M6.8,10H6v0.2h0.8L6.8,10
		L6.8,10z M12.9,10h-0.8v0.2h0.8V10z M12.9,10.7H6v0.2h6.9V10.7z M8.4,11.5H6v0.2h2.4V11.5z M8.4,12.2H6v0.2h2.4V12.2z M8.4,13H6
		v0.2h2.4V13z M12.9,11.5h-2.4v0.2h2.4V11.5z M12.9,12.2h-2.4v0.2h2.4V12.2z M12.9,13h-2.4v0.2h2.4V13z"/>
</g>
</svg>
