<?xml version="1.0" encoding="utf-8"?>
<!-- Generator: Adobe Illustrator 20.1.0, SVG Export Plug-In . SVG Version: 6.00 Build 0)  -->
<!DOCTYPE svg PUBLIC "-//W3C//DTD SVG 1.1//EN" "http://www.w3.org/Graphics/SVG/1.1/DTD/svg11.dtd">
<svg version="1.1" id="Layer_1" xmlns="http://www.w3.org/2000/svg" xmlns:xlink="http://www.w3.org/1999/xlink" x="0px" y="0px"
	 viewBox="0 0 19 19" style="enable-background:new 0 0 19 19;" xml:space="preserve">
<style type="text/css">
	.st0{fill:none;}
	.st1{fill:#477F73;stroke:#0A5446;stroke-width:0.5;stroke-miterlimit:10;}
	.st2{fill:#FFFFFF;}
</style>
<title>square-15.svg</title>
<rect y="0.2" class="st0" width="19" height="19"/>
<path class="st1" d="M15,16.2H4c-0.6,0-1-0.4-1-1v-11c0-0.6,0.4-1,1-1h11c0.6,0,1,0.4,1,1v11C16,15.7,15.6,16.2,15,16.2z"/>
<g>
	<polygon class="st2" points="14.4,9.5 9.5,5.4 4.6,9.5 4.2,9 9.5,4.4 12.1,6.7 12.1,5 13,5 13,7.4 14.8,9 	"/>
	<path class="st2" d="M5.4,14V9.4l0,0l0,0L9.5,6l4.1,3.4l0,0l0,0V14h-3.5v-2.4H8.8V14H5.4z M10.2,6.8H8.8V7h1.4V6.8z M11,7.6H7.9
		v0.2H11V7.6z M12,8.4H7v0.2h5V8.4z M8,9.2H7v1h1V9.2z M11.9,9.2h-1v1h1V9.2z M10.4,9.2H8.5v0.2h1.9V9.2z M10.4,10H8.5v0.2h1.9V10z
		 M6.6,9.2H5.8v0.2h0.8L6.6,9.2L6.6,9.2z M13.1,9.2h-0.8v0.2h0.8V9.2z M6.6,10H5.8v0.2h0.8L6.6,10L6.6,10z M13.1,10h-0.8v0.2h0.8V10
		z M13.1,10.8H5.8V11h7.3V10.8z M8.3,11.6H5.8v0.2h2.5V11.6z M8.3,12.4H5.8v0.2h2.5V12.4z M8.3,13.2H5.8v0.2h2.5V13.2z M13.1,11.6
		h-2.5v0.2h2.5V11.6z M13.1,12.4h-2.5v0.2h2.5V12.4z M13.1,13.2h-2.5v0.2h2.5V13.2z"/>
</g>
</svg>
