<?xml version="1.0" encoding="utf-8"?>
<!-- Generator: Adobe Illustrator 20.1.0, SVG Export Plug-In . SVG Version: 6.00 Build 0)  -->
<!DOCTYPE svg PUBLIC "-//W3C//DTD SVG 1.1//EN" "http://www.w3.org/Graphics/SVG/1.1/DTD/svg11.dtd">
<svg version="1.1" id="Layer_1" xmlns="http://www.w3.org/2000/svg" xmlns:xlink="http://www.w3.org/1999/xlink" x="0px" y="0px"
	 viewBox="0 0 19 19" style="enable-background:new 0 0 19 19;" xml:space="preserve">
<style type="text/css">
	.st0{fill:none;}
	.st1{fill:#575744;stroke:#1E1E06;stroke-width:0.5;stroke-miterlimit:10;}
	.st2{fill:#FFFFFF;}
</style>
<title>square-15.svg</title>
<rect y="0.2" class="st0" width="19" height="19"/>
<path class="st1" d="M15,16.2H4c-0.6,0-1-0.4-1-1v-11c0-0.6,0.4-1,1-1h11c0.6,0,1,0.4,1,1v11C16,15.7,15.6,16.2,15,16.2z"/>
<g>
	<path class="st2" d="M14.4,13.6c-0.3-1.2-0.7-2.3-1.1-3.5v-0.1c0.1-0.2,0.2-0.3,0.2-0.5c0-0.1,0-0.2-0.1-0.2
		c-0.2-0.6-0.3-1.1-0.7-1.6c-0.1-0.2-0.2-0.3-0.4-0.5c-0.2-0.2-0.7-0.2-0.9,0c-0.1,0.1-0.2,0.2-0.2,0.3c-0.2,0.3-0.3,0.7-0.4,1.2
		c0,0,0,0.1-0.1,0.1C10.4,9,9.9,9.4,9.5,9.7l0,0C9.6,9.8,9.7,9.9,9.7,10h0.1l0,0c0.4,0.7,0.8,1.4,1.2,2.1v0.1
		c-0.1,0.5-0.2,1-0.3,1.5c0,0.1,0,0.2-0.1,0.2c0.2,0.1,0.5,0.2,0.8,0.2c0.1-0.2,0.2-0.5,0.2-0.7c0,0,0,0,0,0.1
		c0.2,0.2,0.2,0.4,0.4,0.6c0,0,0,0,0.1,0c0.1,0,0.2,0,0.3,0c0,0,0,0,0-0.1c-0.2-0.4-0.4-0.7-0.7-1.2v-0.1c0.1-0.3,0.2-0.7,0.2-0.9
		v-0.1c0.2-0.2,0.2-0.3,0.4-0.5l0,0c0.5,1,0.9,1.9,1.4,2.9C14.1,14,14.3,13.8,14.4,13.6L14.4,13.6L14.4,13.6z M12.1,9.8
		c-0.2,0.4-0.5,0.9-0.7,1.3c-0.1,0.2-0.1,0.2-0.2,0.4c0,0,0,0,0,0.1c-0.3-0.6-0.7-1.2-1-1.8c0.1,0,0.1-0.1,0.2-0.1
		c0.3-0.1,0.6-0.2,0.9-0.3c0,0,0.1,0,0.1-0.1c0.1-0.2,0.2-0.3,0.2-0.5c0,0,0,0,0,0.1C11.7,9.2,11.9,9.4,12.1,9.8L12.1,9.8z"/>
	<path class="st2" d="M11.4,7c0.3,0,0.7-0.2,0.7-0.7c0-0.4-0.3-0.7-0.7-0.7c-0.3,0-0.7,0.3-0.7,0.7C10.7,6.7,11.1,7,11.4,7z"/>
	<path class="st2" d="M13.4,8.7C13.4,8.8,13.5,8.8,13.4,8.7c0.3,0.1,0.5,0,0.6-0.2V8.4c-0.2-0.6-0.5-1.2-0.8-1.7c0,0,0,0-0.1,0
		c-0.2-0.1-0.4,0-0.5,0.2V7C12.9,7.6,13.1,8.2,13.4,8.7z"/>
	<path class="st2" d="M8.9,9.9L8.9,9.9c0.2-0.2,0.2-0.4,0.2-0.7c0-0.1,0-0.2-0.1-0.2C8.8,8.4,8.7,7.8,8.3,7.2C8.2,7,8.1,6.8,7.8,6.6
		c-0.2-0.2-0.7-0.2-1,0C6.8,6.7,6.6,6.8,6.6,7C6.4,7.4,6.3,7.8,6.2,8.2c0,0.1,0,0.1-0.1,0.1C5.5,8.7,5,9,4.5,9.4c0,0,0,0-0.1,0
		c0.1,0.2,0.2,0.2,0.2,0.3c0.1,0,0.1,0,0.1-0.1c0,0,0,0,0,0.1c0.4,0.8,0.9,1.6,1.3,2.4v0.1c-0.1,0.6-0.2,1.1-0.3,1.7
		c0,0.1,0,0.2-0.1,0.2c0.3,0.1,0.6,0.2,0.9,0.2c0.1-0.2,0.2-0.6,0.2-0.8c0,0,0,0,0,0.1c0.4,0.2,0.6,0.5,0.7,0.7c0,0,0,0,0.1,0
		c0.1,0,0.2,0,0.3,0c0,0,0,0,0-0.1c-0.2-0.4-0.5-0.8-0.7-1.2v-0.1c0.1-0.3,0.2-0.7,0.3-1.1v-0.1c0.2-0.2,0.2-0.4,0.4-0.6l0,0
		c0.5,1.1,1,2.1,1.6,3.2c0.2-0.2,0.4-0.3,0.6-0.4l0,0c0,0,0,0,0-0.1C9.7,12.6,9.3,11.3,8.9,9.9z M7.4,9.6c-0.2,0.5-0.5,1-0.7,1.5
		c-0.1,0.2-0.1,0.3-0.2,0.5c0,0,0,0,0,0.1c-0.3-0.7-0.7-1.3-1.1-2c0.1,0,0.2-0.1,0.2-0.1c0.2-0.2,0.6-0.4,0.9-0.5c0,0,0.1,0,0.1-0.1
		c0.1-0.2,0.2-0.3,0.3-0.5c0,0,0,0,0,0.1c0.2,0.2,0.3,0.6,0.5,0.8C7.4,9.5,7.4,9.5,7.4,9.6z"/>
	<path class="st2" d="M6.7,6.5c0.4,0,0.7-0.3,0.7-0.8c0-0.4-0.3-0.7-0.7-0.7c-0.4,0-0.7,0.3-0.7,0.7S6.3,6.5,6.7,6.5z"/>
	<path class="st2" d="M9,8.4C9,8.4,9.1,8.4,9,8.4c0.3,0.1,0.5,0,0.7-0.2V8C9.3,7.4,9,6.8,8.7,6.1c0,0,0,0-0.1-0.1
		C8.4,6,8.3,6.1,8.1,6.4v0.1C8.4,7.1,8.7,7.7,9,8.4z"/>
</g>
</svg>
