<?xml version="1.0" encoding="utf-8"?>
<!-- Generator: Adobe Illustrator 20.1.0, SVG Export Plug-In . SVG Version: 6.00 Build 0)  -->
<!DOCTYPE svg PUBLIC "-//W3C//DTD SVG 1.1//EN" "http://www.w3.org/Graphics/SVG/1.1/DTD/svg11.dtd">
<svg version="1.1" id="Layer_1" xmlns="http://www.w3.org/2000/svg" xmlns:xlink="http://www.w3.org/1999/xlink" x="0px" y="0px"
	 viewBox="0 0 19 19" style="enable-background:new 0 0 19 19;" xml:space="preserve">
<style type="text/css">
	.st0{fill:none;}
	.st1{fill:#575744;stroke:#1E1E06;stroke-width:0.5;stroke-miterlimit:10;}
	.st2{fill:#FFFFFF;}
</style>
<title>square-15.svg</title>
<rect y="0.2" class="st0" width="19" height="19"/>
<path class="st1" d="M15,16.2H4c-0.6,0-1-0.4-1-1v-11c0-0.6,0.4-1,1-1h11c0.6,0,1,0.4,1,1v11C16,15.7,15.6,16.2,15,16.2z"/>
<g>
	<path class="st2" d="M15.5,14.5c-0.4-1.4-0.9-2.8-1.3-4.2v-0.1c0.1-0.2,0.2-0.4,0.2-0.6c0-0.1,0-0.2-0.1-0.3
		c-0.2-0.7-0.4-1.3-0.8-1.9C13.4,7.2,13.2,7,13,6.8c-0.3-0.3-0.8-0.3-1.1,0c-0.1,0.1-0.2,0.2-0.3,0.4c-0.2,0.4-0.4,0.9-0.5,1.4
		c0,0,0,0.1-0.1,0.1c-0.4,0.2-1,0.6-1.5,1l0,0c0.1,0.1,0.2,0.3,0.3,0.4h0.1l0,0c0.5,0.8,1,1.7,1.4,2.5v0.1c-0.1,0.6-0.2,1.2-0.4,1.8
		c0,0.1,0,0.2-0.1,0.3c0.3,0.1,0.6,0.2,1,0.2c0.1-0.3,0.2-0.6,0.3-0.9c0,0,0,0,0,0.1c0.2,0.2,0.3,0.5,0.5,0.7c0,0,0,0,0.1,0
		s0.2,0,0.4,0c0,0,0,0,0-0.1c-0.3-0.5-0.5-0.9-0.8-1.4v-0.1c0.1-0.4,0.2-0.8,0.3-1.1v-0.1c0.2-0.2,0.3-0.4,0.5-0.6l0,0
		c0.6,1.2,1.1,2.3,1.7,3.5C15.1,14.9,15.3,14.7,15.5,14.5L15.5,14.5L15.5,14.5z M12.6,9.8c-0.3,0.5-0.6,1.1-0.8,1.6
		c-0.1,0.2-0.1,0.3-0.2,0.5c0,0,0,0,0,0.1c-0.4-0.7-0.8-1.4-1.2-2.2c0.1,0,0.1-0.1,0.2-0.1c0.4-0.1,0.7-0.3,1.1-0.4
		c0,0,0.1,0,0.1-0.1C11.9,9,12,8.8,12.1,8.6c0,0,0,0,0,0.1C12.2,9.1,12.4,9.4,12.6,9.8L12.6,9.8z"/>
	<path class="st2" d="M11.8,6.5c0.4,0,0.8-0.3,0.8-0.8s-0.4-0.8-0.8-0.8c-0.4,0-0.8,0.4-0.8,0.8S11.4,6.5,11.8,6.5z"/>
	<path class="st2" d="M14.2,8.5c0,0.1,0.1,0.1,0.1,0.1c0.3,0,0.5-0.1,0.6-0.4V8.1c-0.3-0.7-0.6-1.4-1-2c0,0,0,0-0.1,0
		c-0.3-0.1-0.5,0-0.6,0.3v0.1C13.6,7.2,13.9,7.9,14.2,8.5z"/>
	<path class="st2" d="M8.8,10V9.9C9,9.7,9.1,9.5,9,9.2C9,9.1,9,9,8.9,8.9C8.7,8.1,8.5,7.4,8.1,6.7C7.9,6.4,7.8,6.2,7.5,6
		C7.2,5.7,6.7,5.7,6.3,6C6.2,6.1,6,6.2,6,6.4c-0.2,0.5-0.4,1-0.5,1.5C5.5,8,5.5,8,5.4,8C4.7,8.5,4.1,8.9,3.5,9.3c0,0,0,0-0.1,0
		c0.1,0.2,0.2,0.3,0.3,0.4c0.1,0,0.1,0,0.1-0.1c0,0,0,0,0,0.1c0.5,1,1.1,1.9,1.6,2.9v0.1c-0.1,0.7-0.3,1.3-0.4,2
		c0,0.1,0,0.2-0.1,0.3c0.4,0.1,0.7,0.2,1.1,0.3c0.1-0.3,0.2-0.7,0.3-1c0,0,0,0,0,0.1C6.8,14.7,7,15,7.2,15.2c0,0,0,0,0.1,0
		s0.3,0,0.4,0c0,0,0,0,0-0.1c-0.3-0.5-0.6-1-0.9-1.5v-0.1c0.1-0.4,0.2-0.9,0.4-1.3v-0.1c0.2-0.2,0.3-0.5,0.5-0.7l0,0
		c0.6,1.3,1.2,2.6,1.9,3.9c0.3-0.2,0.5-0.4,0.7-0.5l0,0c0,0,0,0,0-0.1C9.8,13.2,9.3,11.6,8.8,10z M7,9.6c-0.3,0.6-0.6,1.2-0.9,1.8
		C6,11.6,6,11.8,5.9,12c0,0,0,0,0,0.1C5.5,11.3,5,10.5,4.6,9.7c0.1,0,0.2-0.1,0.2-0.1C5.1,9.3,5.5,9.1,5.9,9C5.9,9,6,9,6,8.9
		c0.1-0.2,0.3-0.4,0.4-0.6c0,0,0,0,0,0.1c0.2,0.3,0.4,0.7,0.6,1C7,9.5,7,9.5,7,9.6z"/>
	<path class="st2" d="M6.1,5.8c0.5,0,0.9-0.4,0.9-1c0-0.5-0.4-0.9-0.9-0.9S5.2,4.3,5.2,4.8S5.6,5.8,6.1,5.8z"/>
	<path class="st2" d="M8.9,8.1C8.9,8.2,9,8.2,9,8.2c0.3,0,0.5-0.1,0.7-0.4V7.7C9.3,6.9,8.9,6.2,8.6,5.4c0,0,0,0-0.1-0.1
		C8.2,5.3,8,5.4,7.8,5.7v0.1C8.2,6.6,8.5,7.3,8.9,8.1z"/>
</g>
</svg>
