<?xml version="1.0" encoding="utf-8"?>
<!-- Generator: Adobe Illustrator 20.1.0, SVG Export Plug-In . SVG Version: 6.00 Build 0)  -->
<!DOCTYPE svg PUBLIC "-//W3C//DTD SVG 1.1//EN" "http://www.w3.org/Graphics/SVG/1.1/DTD/svg11.dtd">
<svg version="1.1" id="Layer_1" xmlns="http://www.w3.org/2000/svg" xmlns:xlink="http://www.w3.org/1999/xlink" x="0px" y="0px"
	 viewBox="0 0 19 19" style="enable-background:new 0 0 19 19;" xml:space="preserve">
<style type="text/css">
	.st0{fill:none;}
	.st1{fill:#6AAAC8;stroke:#368FB6;stroke-width:0.5;stroke-miterlimit:10;}
	.st2{fill:#FFFFFF;}
</style>
<title>square-15.svg</title>
<rect y="0.2" class="st0" width="19" height="19"/>
<path class="st1" d="M15,16.2H4c-0.6,0-1-0.4-1-1v-11c0-0.6,0.4-1,1-1h11c0.6,0,1,0.4,1,1v11C16,15.7,15.6,16.2,15,16.2z"/>
<g>
	<rect x="9.3" y="5.1" class="st2" width="0.9" height="8.9"/>
	<circle class="st2" cx="6.8" cy="5.8" r="0.8"/>
	<path class="st2" d="M8.1,7.4C8,7.1,7.7,6.8,7.2,6.8H6.7H6.2c-0.6,0-0.9,0.5-0.9,0.7l-0.6,2C4.5,10,5,10.1,5.2,9.7l0.6-2H6l-1,3.4
		h0.9v2.5c0,0.5,0.7,0.5,0.7,0v-2.6h0.2v2.6c0,0.5,0.7,0.5,0.7,0v-2.6h0.9l-1-3.3h0.2l0.6,2c0.1,0.5,0.8,0.3,0.6-0.2L8.1,7.4z"/>
	<path class="st2" d="M13.4,6.8h-1.6c-0.6,0-0.9,0.5-0.9,0.9v2.2c0,0.5,0.7,0.5,0.7,0v-2h0.2v5.8c0,0.6,0.9,0.6,0.9,0v-3.3h0.2v3.3
		c0,0.6,0.9,0.6,0.9,0V7.8H14v2c0,0.5,0.7,0.5,0.7,0V7.6C14.4,7.2,14.1,6.8,13.4,6.8z"/>
	<circle class="st2" cx="12.6" cy="5.8" r="0.8"/>
</g>
</svg>
