<?xml version="1.0" encoding="utf-8"?>
<!-- Generator: Adobe Illustrator 16.0.4, SVG Export Plug-In . SVG Version: 6.00 Build 0)  -->
<!DOCTYPE svg PUBLIC "-//W3C//DTD SVG 1.1//EN" "http://www.w3.org/Graphics/SVG/1.1/DTD/svg11.dtd">
<svg version="1.1" id="Layer_1" xmlns="http://www.w3.org/2000/svg" xmlns:xlink="http://www.w3.org/1999/xlink" x="0px" y="0px"
	 width="72px" height="72px" viewBox="0 0 72 72" enable-background="new 0 0 72 72" xml:space="preserve">
<path d="M56.499,29.02c-1.2,1.438-2.515,1.51-2.515,1.51c-2.568-2.168,0.85-5.229,0.85-5.229c1.365-1.102,1.851-2.5,1.851-2.5
	C56.803,23.207,58.595,26.502,56.499,29.02z M54.26,29.948c-2.158,0.246-6.1,10.943-7.301,13.542l-3.68,8.756l0.019,0.008
	c-0.138,0.475,0.09,0.99,0.554,1.195c0.459,0.205,0.986,0.033,1.25-0.381l0.012,0.006l4.052-8.691
	C50.283,41.75,55.527,31.711,54.26,29.948z M27.062,26.959c1.232,0,2.23-0.999,2.23-2.23c0-1.23-0.998-2.228-2.23-2.228
	c-1.23,0-2.229,0.998-2.229,2.228C24.834,25.96,25.832,26.959,27.062,26.959z M19.484,28.891c0-1.132,0.918-2.051,2.051-2.051
	s2.051,0.919,2.051,2.051s-0.918,2.05-2.051,2.05S19.484,30.023,19.484,28.891z M31.699,23.912c0-1.133,0.918-2.052,2.051-2.052
	s2.051,0.919,2.051,2.052c0,1.132-0.918,2.05-2.051,2.05S31.699,25.043,31.699,23.912z M18.688,34.951
	c0-0.873,0.708-1.581,1.58-1.581c0.873,0,1.582,0.708,1.582,1.581s-0.709,1.581-1.582,1.581
	C19.396,36.532,18.688,35.824,18.688,34.951z M37.695,26.734c0-0.873,0.707-1.58,1.58-1.58s1.582,0.707,1.582,1.58
	c0,0.872-0.709,1.58-1.582,1.58S37.695,27.606,37.695,26.734z M21.145,39.455c0-0.697,0.566-1.264,1.265-1.264
	s1.265,0.566,1.265,1.264c0,0.699-0.566,1.266-1.265,1.266S21.145,40.154,21.145,39.455z M46.6,26.664c0,0-4.512-9.158-14.812-9.55
	c0,0-5.496-0.183-9.699,2.413c0,0-10.14,5.556-7.392,17.771c0,0,3.363,14.592,15.269,6.304c0,0,3.095-3.38,6.229-2.051
	c0,0,5.617,3.395,9.038-0.456C45.232,41.095,50.838,35.5,46.6,26.664z M32.953,38.17c-0.83,0-1.504-0.672-1.504-1.502
	c0-0.83,0.674-1.503,1.504-1.503c0.831,0,1.504,0.673,1.504,1.503C34.457,37.498,33.784,38.17,32.953,38.17z M43.679,39.935
	c-2.546,2.938-7.617-0.411-7.617-0.411c-0.427-0.182-0.868-0.258-1.312-0.272c0.817-0.569,1.355-1.513,1.355-2.584
	c0-1.739-1.41-3.147-3.15-3.147c-1.742,0-3.152,1.408-3.152,3.147c0,1.52,1.076,2.787,2.51,3.083c-1.39,0.572-2.428,1.42-2.428,1.42
	c-10.396,8.854-13.328-4.417-13.328-4.417c-2.41-10.715,6.484-15.589,6.484-15.589c3.686-2.276,8.508-2.117,8.508-2.117
	c9.035,0.343,13.328,8.228,13.328,8.228C48.596,35.026,43.679,39.935,43.679,39.935z"/>
</svg>
