<?xml version="1.0" encoding="utf-8"?>
<!-- Generator: Adobe Illustrator 16.0.4, SVG Export Plug-In . SVG Version: 6.00 Build 0)  -->
<!DOCTYPE svg PUBLIC "-//W3C//DTD SVG 1.1//EN" "http://www.w3.org/Graphics/SVG/1.1/DTD/svg11.dtd">
<svg version="1.1" id="Layer_1" xmlns="http://www.w3.org/2000/svg" xmlns:xlink="http://www.w3.org/1999/xlink" x="0px" y="0px"
	 width="72px" height="72px" viewBox="0 0 72 72" enable-background="new 0 0 72 72" xml:space="preserve">
<g>
	<path d="M24.503,29.671c-5.021,0-9.091,4.068-9.091,9.09c0,5.022,4.07,9.091,9.091,9.091c5.022,0,9.091-4.068,9.091-9.091
		C33.594,33.739,29.525,29.671,24.503,29.671z M24.503,42.898c-2.285,0-4.138-1.853-4.138-4.138c0-2.287,1.853-4.139,4.138-4.139
		c2.286,0,4.138,1.853,4.138,4.139C28.641,41.046,26.789,42.898,24.503,42.898z"/>
	<path d="M53.861,38.246l0.063-6.635c0-3.837-4.093-4.285-4.093-4.285h-2.599v-5.044h-2.116v5.044H34.124l-1.786-2.169l1.318-1.086
		l-1.016-1.231l-3.906,3.219l1.013,1.229l1.36-1.117l1.493,1.813l-0.773,0.95c-0.11-0.079-0.179-0.123-0.179-0.123
		c-7.568-5.718-14.459,0.337-14.459,0.337l0.926,1.03c0,0,6.072-5.336,12.742-0.297c0,0,4.066,2.556,4.18,8.38l1.354,0.061
		c0-0.011-0.001-0.018-0.001-0.028l12.652-0.037v1.763c-1.791,0.368-3.138,1.953-3.138,3.854c0,2.172,1.763,3.936,3.935,3.936
		c2.174,0,3.934-1.764,3.934-3.936c0-1.9-1.344-3.485-3.136-3.854v-1.767L53.861,38.246z M49.936,30.501h2.76v0.649h-2.76V30.501z
		 M49.928,32.053h2.76v0.648h-2.76V32.053z M49.928,33.603h2.76v0.648h-2.76V33.603z M51.631,43.873c0,0.99-0.802,1.791-1.791,1.791
		c-0.988,0-1.791-0.801-1.791-1.791s0.803-1.791,1.791-1.791C50.829,42.082,51.631,42.883,51.631,43.873z M49.928,35.802v-0.649
		h2.76v0.649H49.928z"/>
</g>
</svg>
