<?xml version="1.0" encoding="utf-8"?>
<!-- Generator: Adobe Illustrator 16.0.4, SVG Export Plug-In . SVG Version: 6.00 Build 0)  -->
<!DOCTYPE svg PUBLIC "-//W3C//DTD SVG 1.1//EN" "http://www.w3.org/Graphics/SVG/1.1/DTD/svg11.dtd">
<svg version="1.1" id="Layer_1" xmlns="http://www.w3.org/2000/svg" xmlns:xlink="http://www.w3.org/1999/xlink" x="0px" y="0px"
	 width="72px" height="72px" viewBox="0 0 72 72" enable-background="new 0 0 72 72" xml:space="preserve">
<path d="M32.808,22.979v6.08c0,0.166-0.061,0.31-0.182,0.432s-0.266,0.184-0.434,0.184c-0.164,0-0.311-0.062-0.432-0.184
	s-0.18-0.266-0.18-0.432v-6.08h-1.23v6.08c0,0.166-0.061,0.31-0.182,0.432c-0.123,0.122-0.266,0.184-0.434,0.184
	s-0.311-0.062-0.432-0.184c-0.123-0.122-0.182-0.266-0.182-0.432v-6.08h-1.229v8.231c0,0.391,0.115,0.745,0.34,1.065
	c0.225,0.319,0.992,0.544,1.357,0.671v14.648h2.748V32.946c0.363-0.127,1.129-0.352,1.359-0.671c0.225-0.32,0.34-0.675,0.34-1.065
	v-8.231H32.808z M40.239,21.259c-1.828,0-2.787,1.617-2.787,3.072v10.873c0,0.084,0.029,0.155,0.092,0.215
	c0.061,0.062,0.131,0.092,0.217,0.092h1.021v12.084h3.025L41.78,21.282L40.239,21.259z M53.332,34.425
	c0,10.209-8.273,18.483-18.481,18.483c-10.207,0-18.48-8.273-18.48-18.483c0-10.207,8.273-18.48,18.48-18.48
	C45.059,15.945,53.332,24.218,53.332,34.425z M34.852,17.814c-9.176,0-16.612,7.437-16.612,16.612
	c0,9.175,7.437,16.613,16.612,16.613c9.174,0,16.611-7.438,16.611-16.613C51.463,25.25,44.025,17.814,34.852,17.814z"/>
</svg>
