<?xml version="1.0" encoding="utf-8"?>
<!-- Generator: Adobe Illustrator 16.0.4, SVG Export Plug-In . SVG Version: 6.00 Build 0)  -->
<!DOCTYPE svg PUBLIC "-//W3C//DTD SVG 1.1//EN" "http://www.w3.org/Graphics/SVG/1.1/DTD/svg11.dtd">
<svg version="1.1" id="Layer_1" xmlns="http://www.w3.org/2000/svg" xmlns:xlink="http://www.w3.org/1999/xlink" x="0px" y="0px"
	 width="72px" height="72px" viewBox="0 0 72 72" enable-background="new 0 0 72 72" xml:space="preserve">
<g>
	<path d="M54.033,37.072"/>
	<g>
		<rect x="18.294" y="37.857" width="13.093" height="15.925"/>
		<polygon points="35.094,37.857 35.094,53.782 48.16,53.782 48.186,37.857 		"/>
	</g>
	<path d="M43.108,26.5c1.169-0.95,1.931-2.381,1.931-4.005c0-2.86-2.318-5.601-5.178-5.601c0,0-4.857-0.914-6.602,3.74
		c-1.684-4.483-6.597-3.74-6.597-3.74c-2.86,0-5.179,2.741-5.179,5.601c0,1.624,0.762,3.055,1.931,4.005h-7.462v9.987h15.426v-8.868
		l1.881-0.023l1.826,0.022v8.869h15.429V26.5H43.108z M27.127,26.241c-2.1,0-3.802-1.703-3.802-3.804c0-2.1,2.151-3.803,4.252-3.803
		c0,0,4.741-0.293,4.741,7.548L27.127,26.241z M38.921,18.634c2.099,0,4.252,1.703,4.252,3.803c0,2.101-1.703,3.804-3.802,3.804
		l-5.192-0.058C34.179,18.341,38.921,18.634,38.921,18.634z"/>
</g>
</svg>
