<?xml version="1.0" encoding="utf-8"?>
<!-- Generator: Adobe Illustrator 16.0.4, SVG Export Plug-In . SVG Version: 6.00 Build 0)  -->
<!DOCTYPE svg PUBLIC "-//W3C//DTD SVG 1.1//EN" "http://www.w3.org/Graphics/SVG/1.1/DTD/svg11.dtd">
<svg version="1.1" id="Layer_1" xmlns="http://www.w3.org/2000/svg" xmlns:xlink="http://www.w3.org/1999/xlink" x="0px" y="0px"
	 width="72px" height="72px" viewBox="0 0 72 72" enable-background="new 0 0 72 72" xml:space="preserve">
<path d="M27.635,42.756c0,0,2.175-2.85,7.51-2.631c5.333-0.219,7.509,2.631,7.509,2.631s-1.006,3.581-7.509,3.436
	C28.642,46.337,27.635,42.756,27.635,42.756z M29.827,42.75c0,0-1.023,0.805,0.438,1.389c0,0,2.249,0.588,4.88,0.516
	c2.63,0.072,4.88-0.516,4.88-0.516c1.461-0.584,0.438-1.389,0.438-1.389c-1.826-1.169-5.317-1.101-5.317-1.101
	S31.653,41.581,29.827,42.75z M23.313,30.738c0,0,2.572-2.188,5.919-0.836c0,0,0.772,0.285,0.835,0.865c0,0,0.08,0.535-0.885,0.856
	C29.183,31.624,26.337,32.862,23.313,30.738z M30.049,32.242c0,0,2.161-1.401,0-2.842c0,0-3.603-2.096-7.009,0.458
	c0,0-1.244,1.375,0.59,2.358C23.63,32.217,27.036,34.011,30.049,32.242z M41.107,31.624c-0.965-0.321-0.887-0.856-0.887-0.856
	c0.064-0.58,0.836-0.865,0.836-0.865c3.346-1.352,5.92,0.836,5.92,0.836C43.953,32.862,41.107,31.624,41.107,31.624z M46.66,32.217
	c1.834-0.983,0.589-2.358,0.589-2.358c-3.405-2.554-7.008-0.458-7.008-0.458c-2.162,1.44,0,2.842,0,2.842
	C43.254,34.011,46.66,32.217,46.66,32.217z M35.146,38.841c0.922,0.019,1.727-0.256,1.727-0.256
	c3.069-1.241,1.462-5.554,1.462-5.554c-0.731-4.019,1.534-5.115,1.534-5.115c3.8-2.63,8.11,0.293,8.11,0.293
	c0.549-0.225,0.123-0.892,0.123-0.892s-3.469-3.144-7.89-1.042c0,0-4.436,1.396-3.35,7.219c0,0,1.111,3.796-1.717,3.945
	c-2.828-0.148-1.719-3.945-1.719-3.945c1.088-5.823-3.349-7.219-3.349-7.219c-4.421-2.102-7.89,1.042-7.89,1.042
	s-0.426,0.667,0.122,0.892c0,0,4.312-2.923,8.111-0.293c0,0,2.266,1.097,1.535,5.115c0,0-1.608,4.312,1.461,5.554
	C33.418,38.585,34.224,38.859,35.146,38.841z M53.694,34.812c0,10.209-8.273,18.483-18.481,18.483
	c-10.207,0-18.48-8.273-18.48-18.483c0-10.207,8.273-18.48,18.48-18.48C45.421,16.332,53.694,24.605,53.694,34.812z M35.214,18.201
	c-9.176,0-16.612,7.437-16.612,16.612c0,9.175,7.437,16.613,16.612,16.613c9.174,0,16.611-7.438,16.611-16.613
	C51.825,25.637,44.388,18.201,35.214,18.201z"/>
</svg>
