<?xml version="1.0" encoding="utf-8"?>
<!-- Generator: Adobe Illustrator 16.0.4, SVG Export Plug-In . SVG Version: 6.00 Build 0)  -->
<!DOCTYPE svg PUBLIC "-//W3C//DTD SVG 1.1//EN" "http://www.w3.org/Graphics/SVG/1.1/DTD/svg11.dtd">
<svg version="1.1" id="Layer_1" xmlns="http://www.w3.org/2000/svg" xmlns:xlink="http://www.w3.org/1999/xlink" x="0px" y="0px"
	 width="72px" height="72px" viewBox="0 0 72 72" enable-background="new 0 0 72 72" xml:space="preserve">
<path d="M47.005,24.091c-0.409-1.55-2.431-1.706-2.431-1.706c2.392-2.209,1.181-4.12,1.181-4.12
	c-2.193-2.861-4.885-0.494-4.885-0.494c-1.008-1.762-2.755-0.925-2.755-0.925c-2.555,1.152-0.826,4.543-0.826,4.543
	c-1.254-0.843-2.253,0.291-2.253,0.291c-2.317,2.253,1.441,4.396,1.725,4.553l-1.625,2.662l-1.128-0.697
	c0,0-2.355-1.639-3.945,0.932l-1.143,3.403l5.178,3.2l-0.702,1.132l-4.911-3.034l-1.197,3.565l4.184,2.585l-0.701,1.134
	l-3.917-2.421l-1.198,3.57l3.187,1.971l-0.702,1.135l-2.92-1.806l-3.184,9.481c-0.17,0.338-0.067,0.752,0.262,0.954
	c0.326,0.204,0.741,0.11,0.967-0.194l17.805-17.87c1.592-2.571-0.93-3.944-0.93-3.944l-1.221-0.755l1.509-2.47l0.398,0.275
	c2.927,2.257,4.146,0.748,4.146,0.748c1.478-1.573-0.146-2.943-0.146-2.943C47.33,26.549,47.005,24.091,47.005,24.091z
	 M37.444,30.323l-0.836-0.518l1.581-2.588L39,27.778L37.444,30.323z"/>
</svg>
