<?xml version="1.0" encoding="utf-8"?>
<!-- Generator: Adobe Illustrator 16.0.4, SVG Export Plug-In . SVG Version: 6.00 Build 0)  -->
<!DOCTYPE svg PUBLIC "-//W3C//DTD SVG 1.1//EN" "http://www.w3.org/Graphics/SVG/1.1/DTD/svg11.dtd">
<svg version="1.1" id="Layer_1" xmlns="http://www.w3.org/2000/svg" xmlns:xlink="http://www.w3.org/1999/xlink" x="0px" y="0px"
	 width="72px" height="72px" viewBox="0 0 72 72" enable-background="new 0 0 72 72" xml:space="preserve">
<g>
	<polygon points="52.974,35.883 34.73,20.608 16.494,35.883 14.928,34.092 34.774,16.979 44.246,25.644 44.246,19.265 47.63,19.265 
		47.658,28.217 54.541,34.092 	"/>
	<path d="M19.271,52.939l0.045-17.071c0-0.017,0-0.041,0.009-0.081c0.009-0.033,0.017-0.057,0.017-0.082L34.73,23.021l15.4,12.684
		l0,0c0.016,0.041,0.026,0.089,0.026,0.163v17.114l-12.949-0.016v-9.141h-4.954v9.141L19.271,52.939z M37.26,25.979H32v0.727h5.26
		V25.979z M40.477,28.929H28.781v0.727h11.695V28.929z M44.028,31.908h-18.8v0.728h18.8V31.908z M29.244,34.931h-3.637v3.636h3.637
		V34.931z M43.65,34.903h-3.635v3.636h3.635V34.903z M38.21,34.902h-7.162v0.728h7.162V34.902z M38.21,37.84h-7.162v0.728h7.162
		V37.84z M23.957,34.902h-2.965v0.728h2.965V34.902z M48.266,34.902h-2.967v0.728h2.967V34.902z M23.957,37.84h-2.965v0.728h2.965
		V37.84z M48.266,37.84h-2.967v0.728h2.967V37.84z M48.266,40.789h-27.25v0.729h27.25V40.789z M30.169,43.826h-9.177v0.727h9.177
		V43.826z M30.169,46.736h-9.177v0.729h9.177V46.736z M30.169,49.703h-9.177v0.727h9.177V49.703z M48.266,43.826h-9.177v0.727h9.177
		V43.826z M48.266,46.736h-9.177v0.729h9.177V46.736z M48.266,49.703h-9.177v0.727h9.177V49.703z"/>
</g>
</svg>
