<?xml version="1.0" encoding="utf-8"?>
<!-- Generator: Adobe Illustrator 16.0.4, SVG Export Plug-In . SVG Version: 6.00 Build 0)  -->
<!DOCTYPE svg PUBLIC "-//W3C//DTD SVG 1.1//EN" "http://www.w3.org/Graphics/SVG/1.1/DTD/svg11.dtd">
<svg version="1.1" id="Layer_1" xmlns="http://www.w3.org/2000/svg" xmlns:xlink="http://www.w3.org/1999/xlink" x="0px" y="0px"
	 width="72px" height="72px" viewBox="0 0 72 72" enable-background="new 0 0 72 72" xml:space="preserve">
<g>
	<path fill-rule="evenodd" clip-rule="evenodd" d="M53.002,49.413c-1.327-4.259-2.65-8.518-3.979-12.774
		c-0.035-0.112-0.021-0.192,0.048-0.289c0.393-0.552,0.601-1.162,0.49-1.848c-0.056-0.349-0.132-0.694-0.216-1.037
		c-0.51-2.064-1.268-4.031-2.334-5.874c-0.391-0.678-0.828-1.32-1.408-1.854c-0.918-0.841-2.361-0.884-3.33-0.106
		c-0.41,0.329-0.727,0.736-0.959,1.208c-0.656,1.325-1.195,2.691-1.42,4.165c-0.021,0.139-0.08,0.228-0.197,0.311
		c-1.635,1.151-3.264,2.306-4.895,3.46c-0.045,0.035-0.092,0.07-0.143,0.107c0.299,0.407,0.585,0.801,0.877,1.195
		c0.138-0.052,0.264-0.097,0.396-0.147c0.031,0.051,0.062,0.094,0.086,0.139c1.466,2.566,2.932,5.135,4.391,7.709
		c0.047,0.083,0.067,0.203,0.049,0.295c-0.353,1.815-0.715,3.632-1.072,5.445c-0.057,0.289-0.111,0.575-0.17,0.873
		c0.971,0.243,1.922,0.481,2.88,0.721c0.294-0.933,0.583-1.846,0.878-2.786c0.057,0.072,0.093,0.118,0.125,0.163
		c0.516,0.729,1.029,1.455,1.547,2.178c0.037,0.051,0.104,0.118,0.155,0.115c0.367-0.013,0.737-0.045,1.13-0.075
		c-0.035-0.066-0.059-0.117-0.088-0.166c-0.791-1.387-1.583-2.771-2.379-4.159c-0.061-0.104-0.073-0.195-0.039-0.313
		c0.323-1.151,0.639-2.307,0.961-3.455c0.022-0.083,0.062-0.166,0.112-0.236c0.469-0.613,0.94-1.227,1.411-1.837
		c0.029-0.04,0.064-0.075,0.11-0.126c1.683,3.546,3.353,7.074,5.03,10.615c0.684-0.488,1.348-0.962,2.012-1.437
		c0-0.013,0-0.023,0-0.034C53.042,49.509,53.017,49.461,53.002,49.413z M44.103,35.348c-0.839,1.626-1.69,3.249-2.51,4.889
		c-0.233,0.472-0.37,0.991-0.552,1.486c-0.019,0.054-0.036,0.107-0.066,0.193c-1.205-2.199-2.396-4.372-3.598-6.558
		c0.232-0.096,0.447-0.185,0.664-0.272c1.088-0.45,2.178-0.895,3.266-1.353c0.088-0.035,0.176-0.115,0.229-0.196
		c0.348-0.554,0.684-1.114,1.038-1.695c0.039,0.075,0.068,0.129,0.094,0.185c0.481,1.01,0.96,2.02,1.446,3.029
		C44.167,35.163,44.156,35.246,44.103,35.348z"/>
	<path fill-rule="evenodd" clip-rule="evenodd" d="M41.827,25.124c1.108-0.016,2.423-0.907,2.43-2.493
		c0.001-1.371-1.103-2.47-2.477-2.467c-1.338,0.005-2.405,1.09-2.407,2.45C39.373,24.008,40.471,25.148,41.827,25.124z"/>
	<path fill-rule="evenodd" clip-rule="evenodd" d="M49.183,31.379c0.084,0.182,0.178,0.283,0.347,0.238
		c0.844-0.011,1.43-0.375,1.788-1.099c0.03-0.062,0.033-0.163,0.004-0.228c-0.972-2.06-1.951-4.119-2.935-6.174
		c-0.031-0.064-0.109-0.129-0.177-0.145c-0.866-0.217-1.481,0.069-1.879,0.87c-0.065,0.135-0.065,0.244-0.003,0.381
		C47.285,27.272,48.238,29.324,49.183,31.379z"/>
	<path fill-rule="evenodd" clip-rule="evenodd" d="M32.748,35.905c-0.039-0.129-0.026-0.217,0.053-0.327
		c0.443-0.621,0.676-1.307,0.553-2.075c-0.064-0.389-0.148-0.777-0.243-1.163c-0.573-2.316-1.425-4.526-2.622-6.6
		c-0.439-0.758-0.928-1.481-1.58-2.078c-1.031-0.943-2.653-0.994-3.74-0.121c-0.461,0.37-0.818,0.828-1.078,1.355
		c-0.737,1.492-1.343,3.024-1.594,4.677c-0.025,0.155-0.092,0.26-0.223,0.351c-1.835,1.291-3.664,2.588-5.496,3.887
		c-0.051,0.038-0.102,0.075-0.161,0.12c0.335,0.456,0.659,0.897,0.985,1.345c0.152-0.059,0.295-0.112,0.445-0.168
		c0.035,0.056,0.068,0.104,0.096,0.155c1.646,2.885,3.292,5.77,4.933,8.659c0.052,0.091,0.073,0.228,0.054,0.332
		c-0.396,2.038-0.801,4.077-1.204,6.115c-0.063,0.321-0.126,0.643-0.19,0.98c1.09,0.272,2.156,0.541,3.234,0.809
		c0.331-1.047,0.655-2.073,0.986-3.129c0.061,0.081,0.103,0.132,0.141,0.186c0.578,0.813,1.154,1.631,1.736,2.442
		c0.042,0.059,0.117,0.134,0.173,0.131c0.415-0.016,0.827-0.053,1.271-0.083c-0.041-0.077-0.068-0.134-0.099-0.189
		c-0.888-1.557-1.776-3.112-2.669-4.669c-0.07-0.118-0.086-0.22-0.049-0.354c0.365-1.294,0.721-2.59,1.082-3.881
		c0.025-0.094,0.068-0.188,0.127-0.266c0.524-0.688,1.055-1.377,1.582-2.062c0.035-0.045,0.076-0.085,0.127-0.145
		c1.887,3.985,3.763,7.947,5.648,11.925c0.765-0.547,1.511-1.079,2.258-1.612c0-0.014,0-0.027,0-0.04
		c-0.022-0.054-0.051-0.107-0.066-0.164C35.727,45.468,34.238,40.684,32.748,35.905z M27.223,34.453
		c-0.945,1.827-1.9,3.651-2.817,5.491c-0.265,0.527-0.418,1.111-0.622,1.669c-0.021,0.059-0.043,0.12-0.076,0.217
		c-1.354-2.467-2.689-4.907-4.037-7.363c0.258-0.107,0.5-0.209,0.743-0.308c1.223-0.504,2.446-1.005,3.667-1.517
		c0.1-0.043,0.199-0.131,0.258-0.225c0.389-0.619,0.767-1.248,1.166-1.904c0.043,0.086,0.077,0.147,0.106,0.209
		c0.541,1.136,1.078,2.271,1.624,3.404C27.293,34.247,27.281,34.338,27.223,34.453z"/>
	<path fill-rule="evenodd" clip-rule="evenodd" d="M24.665,22.974c1.247-0.019,2.72-1.023,2.729-2.802c0-1.54-1.238-2.772-2.78-2.77
		c-1.503,0.003-2.702,1.224-2.704,2.754C21.908,21.718,23.144,22.998,24.665,22.974z"/>
	<path fill-rule="evenodd" clip-rule="evenodd" d="M32.928,29.996c0.094,0.204,0.199,0.316,0.389,0.269
		c0.948-0.011,1.605-0.424,2.008-1.235c0.033-0.069,0.037-0.185,0.004-0.254c-1.093-2.314-2.191-4.626-3.295-6.935
		c-0.035-0.072-0.123-0.145-0.197-0.161c-0.973-0.243-1.664,0.075-2.111,0.978c-0.074,0.147-0.074,0.271-0.002,0.426
		C30.796,25.384,31.866,27.69,32.928,29.996z"/>
</g>
</svg>
