<?xml version="1.0" encoding="utf-8"?>
<!-- Generator: Adobe Illustrator 16.0.4, SVG Export Plug-In . SVG Version: 6.00 Build 0)  -->
<!DOCTYPE svg PUBLIC "-//W3C//DTD SVG 1.1//EN" "http://www.w3.org/Graphics/SVG/1.1/DTD/svg11.dtd">
<svg version="1.1" id="Layer_1" xmlns="http://www.w3.org/2000/svg" xmlns:xlink="http://www.w3.org/1999/xlink" x="0px" y="0px"
	 width="72px" height="72px" viewBox="0 0 72 72" enable-background="new 0 0 72 72" xml:space="preserve">
<path d="M52.082,51.392H18.354V17.663h33.729V51.392z M53.781,15.884H16.494v37.287h37.287V15.884z M34.641,22.527v24.082h2.268
	V22.527H34.641z M35.774,34.568 M27.502,26.279c1.096,0,1.985-0.891,1.985-1.986s-0.89-1.984-1.985-1.984s-1.985,0.889-1.985,1.984
	S26.406,26.279,27.502,26.279z M27.502,24.293 M27.764,38.863v6.953c0,1.234,1.863,1.24,1.863,0v-6.953h2.492l-2.683-9.207h0.451
	l1.563,5.242c0.372,1.195,1.934,0.688,1.586-0.539l-1.735-5.709c-0.214-0.643-1.042-1.807-2.456-1.807h-1.415l0,0h-1.315
	c-1.426,0-2.25,1.154-2.436,1.807l-1.736,5.713c-0.359,1.229,1.215,1.699,1.587,0.553l1.563-5.26h0.416l-2.653,9.207h2.481v6.943
	c0,1.25,1.871,1.25,1.871,0v-6.943H27.764z M41.667,26.836c-1.396,0-2.52,1.156-2.52,2.596v6.143c0,1.195,1.723,1.195,1.723,0
	v-5.615h0.407V45.52c0,1.598,2.295,1.549,2.295,0V36.41h0.396v9.109c0,1.549,2.307,1.598,2.307,0V29.959h0.398v5.615
	c0,1.203,1.714,1.203,1.712,0v-6.105c0-1.328-1.019-2.631-2.551-2.631L41.667,26.836z M43.761,26.279
	c1.097,0,1.985-0.891,1.985-1.986s-0.889-1.984-1.985-1.984s-1.984,0.889-1.984,1.984S42.664,26.279,43.761,26.279z M43.761,24.293"
	/>
</svg>
